<svg width="2533" height="854" viewBox="0 0 2533 854" fill="none" xmlns="http://www.w3.org/2000/svg">
<g clip-path="url(#clip0_629_42)">
<path d="M118.795 251.388C120.341 249.435 122.376 248.417 124.898 248.336C127.503 248.255 130.188 248.824 132.955 250.045C135.803 251.266 138.57 252.975 141.256 255.172C144.023 257.288 146.342 259.566 148.214 262.008C150.167 264.449 151.51 266.85 152.242 269.21C152.975 271.57 152.771 273.604 151.632 275.313C148.458 279.871 144.47 284.225 139.669 288.375C134.868 292.444 129.537 296.025 123.678 299.117C117.9 302.21 111.715 304.692 105.123 306.563C98.6126 308.517 92.0208 309.534 85.3477 309.615C75.2565 309.778 66.0605 308.476 57.7598 305.709C49.5404 303.023 42.2161 299.199 35.7871 294.234C29.4395 289.189 23.9056 283.167 19.1855 276.168C14.5469 269.169 10.722 261.438 7.71094 252.975C4.78125 244.511 2.58398 235.478 1.11914 225.875C-0.264323 216.191 -0.874674 206.262 -0.711914 196.09C-0.549154 184.941 0.549479 174.483 2.58398 164.718C4.61849 154.952 7.4668 145.96 11.1289 137.74C14.8724 129.521 19.389 122.197 24.6787 115.768C29.9684 109.339 35.8685 103.886 42.3789 99.4102C48.8893 94.9342 55.9694 91.5163 63.6191 89.1562C71.3503 86.7962 79.529 85.6162 88.1553 85.6162C95.2354 85.6162 102.031 86.4707 108.541 88.1797C115.133 89.8073 121.155 92.2487 126.607 95.5039C132.141 98.6777 136.943 102.625 141.012 107.345C145.081 111.983 148.173 117.354 150.289 123.458C150.94 125.411 150.615 127.446 149.312 129.562C148.01 131.677 146.139 133.671 143.697 135.543C141.337 137.333 138.611 138.961 135.519 140.426C132.426 141.809 129.415 142.826 126.485 143.478C123.556 144.129 120.911 144.291 118.551 143.966C116.191 143.64 114.563 142.664 113.668 141.036C110.982 136.235 107.198 132.573 102.315 130.05C97.4326 127.446 91.1257 126.428 83.3945 126.998C77.7793 127.405 72.2861 129.236 66.915 132.491C61.6253 135.746 56.8646 140.263 52.6328 146.041C48.401 151.819 44.9424 158.818 42.2568 167.037C39.5713 175.175 37.9844 184.412 37.4961 194.747C36.9264 207.361 37.7809 218.347 40.0596 227.706C42.4196 237.065 45.7155 244.837 49.9473 251.021C54.179 257.206 59.0618 261.845 64.5957 264.938C70.2109 268.03 76.0296 269.576 82.0518 269.576C85.307 269.576 88.7249 269.047 92.3057 267.989C95.9678 266.85 99.4671 265.426 102.804 263.717C106.14 261.926 109.192 259.973 111.959 257.857C114.807 255.66 117.086 253.504 118.795 251.388ZM269.063 311.446C255.636 311.609 243.551 309.615 232.809 305.465C222.148 301.314 212.83 295.659 204.854 288.497C196.879 281.254 190.247 272.831 184.957 263.229C179.667 253.544 175.72 243.25 173.116 232.345C170.512 221.44 169.21 210.25 169.21 198.775C169.291 187.301 170.675 176.111 173.36 165.206C176.046 154.301 180.034 144.007 185.323 134.322C190.613 124.638 197.205 116.174 205.099 108.932C213.074 101.607 222.27 95.8701 232.687 91.7197C243.185 87.488 254.944 85.3721 267.965 85.3721C280.416 85.3721 291.606 87.488 301.534 91.7197C311.463 95.9515 320.13 101.689 327.535 108.932C335.022 116.093 341.207 124.516 346.09 134.2C351.054 143.803 354.757 154.016 357.198 164.84C359.721 175.582 360.982 186.69 360.982 198.165C360.982 209.558 359.721 220.667 357.198 231.49C354.757 242.314 351.054 252.568 346.09 262.252C341.207 271.855 335.104 280.278 327.779 287.521C320.455 294.763 311.869 300.541 302.022 304.854C292.257 309.168 281.271 311.365 269.063 311.446ZM262.594 129.073C253.642 129.643 245.789 132.084 239.034 136.397C232.361 140.711 226.786 146.204 222.311 152.877C217.835 159.469 214.498 166.956 212.301 175.338C210.104 183.639 209.046 192.102 209.127 200.729C209.208 209.273 210.429 217.656 212.789 225.875C215.23 234.013 218.811 241.297 223.531 247.726C228.251 254.155 234.151 259.322 241.231 263.229C248.312 267.135 256.572 269.129 266.012 269.21C272.848 269.291 279.033 267.989 284.566 265.304C290.182 262.618 295.064 258.997 299.215 254.439C303.447 249.882 306.987 244.552 309.835 238.448C312.683 232.263 314.799 225.753 316.183 218.917C317.647 212 318.38 204.96 318.38 197.799C318.38 190.556 317.647 183.557 316.183 176.803C314.799 169.967 312.643 163.578 309.713 157.638C306.783 151.616 303.08 146.448 298.604 142.135C294.129 137.74 288.88 134.363 282.857 132.003C276.917 129.643 270.162 128.666 262.594 129.073ZM558.37 298.995C558.37 300.623 557.556 302.169 555.929 303.634C554.382 305.017 552.307 306.197 549.703 307.174C547.18 308.232 544.332 309.005 541.158 309.493C538.066 309.981 535.014 310.144 532.003 309.981C529.073 309.819 526.347 309.29 523.824 308.395C521.301 307.499 519.389 306.157 518.087 304.366C516.215 301.843 513.285 297.815 509.298 292.281C505.392 286.666 500.753 280.074 495.382 272.506C490.092 264.938 484.273 256.637 477.926 247.604C471.578 238.489 465.068 229.171 458.395 219.649C451.803 210.047 445.17 200.484 438.497 190.963C431.905 181.441 425.639 172.449 419.698 163.985L420.553 299.728C420.553 301.437 419.495 302.983 417.379 304.366C415.263 305.75 412.577 306.808 409.322 307.54C406.148 308.354 402.649 308.801 398.824 308.883C395.081 309.046 391.581 308.72 388.326 307.906C385.152 307.174 382.507 305.953 380.392 304.244C378.276 302.535 377.218 300.257 377.218 297.408L377.95 94.0391C377.95 92.9811 378.805 91.9639 380.514 90.9873C382.223 89.9294 384.379 88.9935 386.983 88.1797C389.588 87.3659 392.477 86.7148 395.65 86.2266C398.824 85.7383 401.876 85.5348 404.806 85.6162C407.817 85.6162 410.502 85.9417 412.862 86.5928C415.222 87.2438 416.931 88.3018 417.989 89.7666L515.279 225.997C515.279 216.801 515.279 207.361 515.279 197.677C515.361 187.993 515.401 178.512 515.401 169.234C515.401 159.957 515.401 151.127 515.401 142.745C515.401 134.282 515.401 126.673 515.401 119.918C515.483 113.163 515.523 107.467 515.523 102.828C515.605 98.1895 515.686 95.0156 515.768 93.3066C515.768 91.7604 516.785 90.4176 518.819 89.2783C520.935 88.139 523.499 87.2845 526.51 86.7148C529.602 86.0638 532.898 85.6976 536.397 85.6162C539.978 85.4535 543.274 85.5755 546.285 85.9824C549.378 86.3893 551.941 87.1217 553.976 88.1797C556.01 89.2376 557.027 90.5804 557.027 92.208L558.37 298.995ZM717.672 180.343C721.253 180.343 724.223 181.238 726.583 183.028C729.024 184.737 730.937 187.016 732.32 189.864C733.785 192.631 734.843 195.764 735.494 199.264C736.145 202.682 736.552 206.1 736.715 209.518C736.959 212.854 737 215.947 736.837 218.795C736.674 221.643 736.552 223.881 736.471 225.509C735.331 239.425 732.849 251.591 729.024 262.008C725.281 272.343 720.357 281.01 714.254 288.009C708.15 294.926 700.948 300.175 692.647 303.756C684.428 307.337 675.313 309.249 665.304 309.493C655.213 309.737 646.017 308.517 637.716 305.831C629.496 303.146 622.132 299.321 615.621 294.356C609.111 289.392 603.495 283.451 598.775 276.534C594.055 269.535 590.149 261.845 587.057 253.463C583.964 244.999 581.645 235.966 580.099 226.363C578.634 216.76 577.901 206.873 577.901 196.7C577.901 180.017 580.017 164.881 584.249 151.29C588.562 137.618 594.584 125.94 602.315 116.256C610.047 106.49 619.243 98.9626 629.903 93.6729C640.646 88.3831 652.486 85.6976 665.426 85.6162C672.506 85.6162 679.342 86.43 685.934 88.0576C692.525 89.6038 698.548 91.9639 704 95.1377C709.534 98.3115 714.376 102.218 718.526 106.856C722.677 111.495 725.851 116.866 728.048 122.97C728.78 124.923 728.495 126.957 727.193 129.073C725.891 131.189 724.02 133.183 721.578 135.055C719.218 136.926 716.492 138.595 713.399 140.06C710.388 141.443 707.418 142.46 704.488 143.111C701.559 143.762 698.914 143.966 696.554 143.722C694.194 143.396 692.566 142.42 691.671 140.792C688.904 135.909 685.079 132.247 680.196 129.806C675.313 127.283 668.966 126.347 661.153 126.998C655.538 127.486 650.086 129.358 644.796 132.613C639.506 135.868 634.786 140.426 630.636 146.285C626.485 152.063 623.108 159.062 620.504 167.281C617.9 175.501 616.435 184.778 616.109 195.113C615.702 207.727 616.72 218.673 619.161 227.95C621.603 237.228 624.939 244.959 629.171 251.144C633.484 257.247 638.448 261.845 644.063 264.938C649.679 267.949 655.497 269.495 661.52 269.576C666.402 269.658 670.797 268.803 674.703 267.013C678.691 265.141 682.068 262.211 684.835 258.224C687.602 254.236 689.799 249.109 691.427 242.843C693.054 236.576 693.99 229.09 694.234 220.382L654.073 220.26C652.527 220.26 651.184 219.283 650.045 217.33C648.906 215.377 647.97 212.936 647.237 210.006C646.586 207.076 646.179 203.943 646.017 200.606C645.854 197.188 645.976 194.015 646.383 191.085C646.79 188.155 647.481 185.714 648.458 183.761C649.435 181.808 650.777 180.831 652.486 180.831L717.672 180.343ZM774.068 85.6162C781.881 84.721 790.426 84.1921 799.703 84.0293C808.98 83.7852 818.299 84.2327 827.657 85.3721C837.097 86.5114 846.212 88.4645 855.001 91.2314C863.871 93.9984 871.765 97.9046 878.683 102.95C885.681 107.914 891.378 114.14 895.772 121.627C900.167 129.114 902.608 138.188 903.097 148.849C903.422 156.498 902.73 163.416 901.021 169.601C899.312 175.704 896.83 181.157 893.575 185.958C890.32 190.678 886.454 194.788 881.979 198.287C877.584 201.786 872.783 204.798 867.574 207.32C862.447 209.762 857.117 211.796 851.583 213.424C846.049 214.97 840.637 216.15 835.348 216.964L903.585 277.145C904.887 278.284 905.375 280.115 905.05 282.638C904.724 285.16 903.829 287.927 902.364 290.938C900.899 293.95 898.987 296.961 896.627 299.972C894.348 302.901 891.907 305.343 889.303 307.296C886.699 309.33 884.054 310.592 881.368 311.08C878.683 311.65 876.241 310.999 874.044 309.127L796.163 237.96L797.14 301.925C797.14 303.634 796.082 305.18 793.966 306.563C791.85 307.947 789.164 309.005 785.909 309.737C782.654 310.551 779.155 310.999 775.411 311.08C771.668 311.243 768.168 310.917 764.913 310.104C761.739 309.371 759.054 308.15 756.856 306.441C754.741 304.732 753.723 302.454 753.805 299.605C753.805 296.188 753.845 291.02 753.927 284.103C754.09 277.104 754.212 269.007 754.293 259.811C754.374 250.533 754.456 240.523 754.537 229.781C754.618 218.958 754.659 208.012 754.659 196.944C754.741 185.795 754.741 174.85 754.659 164.107C754.659 153.365 754.578 143.478 754.415 134.444C754.334 128.585 754.496 122.848 754.903 117.232C755.392 111.536 756.368 106.45 757.833 101.974C759.298 97.4163 761.332 93.6729 763.937 90.7432C766.541 87.8135 769.918 86.1045 774.068 85.6162ZM797.872 177.291C799.256 177.535 801.249 177.739 803.854 177.901C806.458 177.983 809.387 177.983 812.643 177.901C815.979 177.82 819.519 177.576 823.263 177.169C827.006 176.681 830.709 175.989 834.371 175.094C838.033 174.199 841.492 173.019 844.747 171.554C848.084 170.089 850.973 168.299 853.414 166.183C855.855 163.985 857.727 161.381 859.029 158.37C860.331 155.359 860.82 151.9 860.494 147.994C860.169 144.007 858.948 140.548 856.832 137.618C854.716 134.607 851.99 132.084 848.653 130.05C845.398 127.934 841.655 126.266 837.423 125.045C833.191 123.824 828.797 122.929 824.239 122.359C819.682 121.79 815.084 121.586 810.445 121.749C805.807 121.83 801.412 122.156 797.262 122.726L797.872 177.291ZM1051.9 258.59L979.391 258.102L962.423 304.122C961.853 305.668 960.388 306.726 958.028 307.296C955.668 307.947 952.901 308.15 949.728 307.906C946.635 307.662 943.38 307.011 939.962 305.953C936.544 304.977 933.492 303.674 930.807 302.047C928.202 300.338 926.168 298.385 924.703 296.188C923.32 293.99 923.076 291.59 923.971 288.985C924.459 287.439 925.395 284.632 926.778 280.562C928.243 276.493 930.034 271.489 932.149 265.548C934.347 259.607 936.788 252.893 939.474 245.406C942.159 237.919 944.967 230.025 947.896 221.725C950.908 213.424 954 204.879 957.174 196.09C960.348 187.301 963.481 178.674 966.573 170.211C969.666 161.666 972.636 153.447 975.484 145.553C978.333 137.577 980.937 130.253 983.297 123.58C985.738 116.907 987.854 111.088 989.645 106.124C991.435 101.078 992.778 97.2129 993.673 94.5273C994.243 92.8997 995.545 91.5977 997.579 90.6211C999.695 89.5632 1002.18 88.79 1005.03 88.3018C1007.87 87.8135 1010.93 87.61 1014.18 87.6914C1017.44 87.6914 1020.49 87.9762 1023.34 88.5459C1026.18 89.0342 1028.67 89.7666 1030.78 90.7432C1032.9 91.7197 1034.24 92.859 1034.81 94.1611C1036.28 97.4163 1038.35 102.503 1041.04 109.42C1043.72 116.256 1046.81 124.272 1050.31 133.468C1053.81 142.664 1057.56 152.674 1061.54 163.497C1065.53 174.239 1069.52 185.063 1073.51 195.968C1077.58 206.873 1081.52 217.574 1085.35 228.072C1089.17 238.489 1092.59 247.97 1095.6 256.515C1098.69 264.978 1101.26 272.18 1103.29 278.121C1105.41 283.98 1106.79 287.846 1107.44 289.718C1108.26 292.322 1107.97 294.723 1106.59 296.92C1105.2 299.117 1103.17 301.07 1100.48 302.779C1097.88 304.407 1094.87 305.709 1091.45 306.686C1088.03 307.743 1084.74 308.395 1081.56 308.639C1078.47 308.883 1075.74 308.679 1073.38 308.028C1071.02 307.459 1069.56 306.401 1068.99 304.854L1051.9 258.59ZM994.649 216.72L1036.64 216.842L1015.65 159.591L994.649 216.72ZM1213.28 88.9121C1214.99 88.9121 1216.53 89.9701 1217.92 92.0859C1219.3 94.2018 1220.36 96.8467 1221.09 100.021C1221.9 103.194 1222.35 106.612 1222.43 110.274C1222.6 113.937 1222.27 117.354 1221.46 120.528C1220.72 123.702 1219.5 126.347 1217.79 128.463C1216.08 130.497 1213.81 131.515 1210.96 131.515L1178.85 131.393L1179.59 299.728C1179.59 301.437 1178.53 302.983 1176.41 304.366C1174.3 305.75 1171.61 306.808 1168.36 307.54C1165.1 308.354 1161.6 308.801 1157.86 308.883C1154.11 309.046 1150.61 308.72 1147.36 307.906C1144.19 307.174 1141.5 305.953 1139.3 304.244C1137.19 302.535 1136.17 300.257 1136.25 297.408C1136.25 295.536 1136.25 292.363 1136.25 287.887C1136.33 283.411 1136.37 278.04 1136.37 271.773C1136.37 265.426 1136.37 258.386 1136.37 250.655C1136.37 242.843 1136.37 234.705 1136.37 226.241C1136.45 217.696 1136.5 209.07 1136.5 200.362C1136.5 191.573 1136.5 183.028 1136.5 174.728C1136.5 166.427 1136.5 158.574 1136.5 151.168C1136.5 143.681 1136.5 137.008 1136.5 131.148L1102.56 130.904C1101.01 130.904 1099.67 129.887 1098.53 127.853C1097.47 125.737 1096.62 123.132 1095.97 120.04C1095.4 116.948 1095.07 113.611 1094.99 110.03C1094.91 106.45 1095.11 103.113 1095.6 100.021C1096.09 96.9281 1096.82 94.3646 1097.8 92.3301C1098.86 90.2956 1100.24 89.2783 1101.95 89.2783L1213.28 88.9121ZM1311.54 306.441C1303.08 306.441 1295.43 305.343 1288.59 303.146C1281.76 300.948 1275.7 297.937 1270.41 294.112C1265.12 290.206 1260.52 285.608 1256.61 280.318C1252.79 274.947 1249.57 269.129 1246.97 262.862C1244.45 256.515 1242.53 249.841 1241.23 242.843C1239.93 235.763 1239.16 228.52 1238.91 221.114C1238.75 215.906 1238.55 209.924 1238.3 203.17C1238.14 196.334 1237.98 189.132 1237.81 181.563C1237.65 173.995 1237.49 166.305 1237.33 158.492C1237.24 150.68 1237.16 143.111 1237.08 135.787C1237 128.463 1236.96 121.668 1236.96 115.401C1237.04 109.054 1237.2 103.642 1237.45 99.166C1237.53 96.806 1238.59 94.8529 1240.62 93.3066C1242.74 91.7604 1245.3 90.6211 1248.31 89.8887C1251.32 89.1562 1254.58 88.79 1258.08 88.79C1261.58 88.79 1264.79 89.1969 1267.72 90.0107C1270.73 90.8245 1273.17 92.0046 1275.04 93.5508C1277 95.0156 1277.93 96.8874 1277.85 99.166C1277.69 102.91 1277.53 107.345 1277.36 112.472C1277.28 117.599 1277.2 123.132 1277.12 129.073C1277.12 135.014 1277.08 141.24 1277 147.75C1277 154.179 1277 160.608 1277 167.037C1277.08 173.466 1277.12 179.732 1277.12 185.836C1277.2 191.858 1277.28 197.473 1277.36 202.682C1277.45 207.89 1277.53 212.488 1277.61 216.476C1277.69 220.463 1277.81 223.596 1277.97 225.875C1278.38 232.548 1279.64 238.448 1281.76 243.575C1283.87 248.702 1286.48 253.015 1289.57 256.515C1292.75 259.933 1296.24 262.537 1300.07 264.327C1303.89 266.118 1307.72 267.013 1311.54 267.013C1315.45 267.013 1319.32 266.118 1323.14 264.327C1326.97 262.537 1330.46 259.933 1333.64 256.515C1336.81 253.015 1339.46 248.702 1341.57 243.575C1343.69 238.448 1344.95 232.548 1345.36 225.875C1345.52 223.596 1345.64 220.463 1345.72 216.476C1345.81 212.488 1345.89 207.89 1345.97 202.682C1346.05 197.473 1346.09 191.858 1346.09 185.836C1346.17 179.732 1346.21 173.466 1346.21 167.037C1346.21 160.608 1346.17 154.179 1346.09 147.75C1346.09 141.24 1346.05 135.014 1345.97 129.073C1345.97 123.132 1345.89 117.599 1345.72 112.472C1345.64 107.345 1345.52 102.91 1345.36 99.166C1345.28 96.8874 1346.17 95.0156 1348.04 93.5508C1350 92.0046 1352.44 90.8245 1355.37 90.0107C1358.38 89.1969 1361.63 88.79 1365.13 88.79C1368.63 88.79 1371.89 89.1562 1374.9 89.8887C1377.91 90.6211 1380.43 91.7604 1382.47 93.3066C1384.58 94.8529 1385.68 96.806 1385.76 99.166C1385.93 103.642 1386.05 109.054 1386.13 115.401C1386.21 121.668 1386.21 128.463 1386.13 135.787C1386.13 143.111 1386.05 150.68 1385.88 158.492C1385.8 166.305 1385.68 173.995 1385.52 181.563C1385.36 189.132 1385.15 196.334 1384.91 203.17C1384.75 209.924 1384.58 215.906 1384.42 221.114C1384.18 228.438 1383.4 235.681 1382.1 242.843C1380.8 249.923 1378.85 256.637 1376.24 262.984C1373.72 269.251 1370.54 275.069 1366.72 280.44C1362.89 285.73 1358.3 290.328 1352.93 294.234C1347.64 298.059 1341.53 301.07 1334.62 303.268C1327.78 305.383 1320.09 306.441 1311.54 306.441ZM1446.19 264.938L1516.01 263.473C1517.72 263.473 1519.27 264.571 1520.65 266.769C1522.03 268.884 1523.09 271.57 1523.82 274.825C1524.64 277.999 1525.09 281.458 1525.17 285.201C1525.33 288.945 1525 292.444 1524.19 295.699C1523.46 298.873 1522.24 301.559 1520.53 303.756C1518.82 305.872 1516.54 306.889 1513.69 306.808C1502.87 306.645 1491.19 306.604 1478.66 306.686C1466.13 306.767 1452.54 306.808 1437.89 306.808C1431.7 306.808 1426.53 306.482 1422.38 305.831C1418.23 305.261 1414.86 304.326 1412.25 303.023C1409.73 301.721 1407.82 300.012 1406.51 297.896C1405.29 295.699 1404.44 293.054 1403.95 289.962C1403.46 286.869 1403.22 283.289 1403.22 279.22C1403.22 275.069 1403.22 270.349 1403.22 265.06C1403.22 258.142 1403.22 250.615 1403.22 242.477C1403.22 234.257 1403.22 225.794 1403.22 217.086C1403.3 208.378 1403.34 199.589 1403.34 190.719C1403.34 181.848 1403.34 173.222 1403.34 164.84C1403.42 156.376 1403.46 148.401 1403.46 140.914C1403.46 133.346 1403.46 126.55 1403.46 120.528C1403.54 114.506 1403.58 109.42 1403.58 105.27C1403.67 101.119 1403.75 98.2708 1403.83 96.7246C1403.91 95.1784 1404.97 93.8356 1407 92.6963C1409.04 91.557 1411.56 90.7025 1414.57 90.1328C1417.66 89.4818 1420.96 89.1156 1424.46 89.0342C1428.04 88.8714 1431.34 88.9935 1434.35 89.4004C1437.44 89.8073 1440 90.5397 1442.04 91.5977C1444.07 92.6556 1445.09 93.9984 1445.09 95.626L1446.19 264.938ZM1670.31 258.59L1597.8 258.102L1580.83 304.122C1580.26 305.668 1578.8 306.726 1576.44 307.296C1574.08 307.947 1571.31 308.15 1568.14 307.906C1565.04 307.662 1561.79 307.011 1558.37 305.953C1554.95 304.977 1551.9 303.674 1549.21 302.047C1546.61 300.338 1544.58 298.385 1543.11 296.188C1541.73 293.99 1541.48 291.59 1542.38 288.985C1542.87 287.439 1543.8 284.632 1545.19 280.562C1546.65 276.493 1548.44 271.489 1550.56 265.548C1552.75 259.607 1555.2 252.893 1557.88 245.406C1560.57 237.919 1563.38 230.025 1566.3 221.725C1569.32 213.424 1572.41 204.879 1575.58 196.09C1578.76 187.301 1581.89 178.674 1584.98 170.211C1588.07 161.666 1591.04 153.447 1593.89 145.553C1596.74 137.577 1599.35 130.253 1601.71 123.58C1604.15 116.907 1606.26 111.088 1608.05 106.124C1609.84 101.078 1611.19 97.2129 1612.08 94.5273C1612.65 92.8997 1613.95 91.5977 1615.99 90.6211C1618.1 89.5632 1620.59 88.79 1623.43 88.3018C1626.28 87.8135 1629.33 87.61 1632.59 87.6914C1635.84 87.6914 1638.9 87.9762 1641.74 88.5459C1644.59 89.0342 1647.07 89.7666 1649.19 90.7432C1651.31 91.7197 1652.65 92.859 1653.22 94.1611C1654.68 97.4163 1656.76 102.503 1659.44 109.42C1662.13 116.256 1665.22 124.272 1668.72 133.468C1672.22 142.664 1675.96 152.674 1679.95 163.497C1683.94 174.239 1687.93 185.063 1691.92 195.968C1695.98 206.873 1699.93 217.574 1703.76 228.072C1707.58 238.489 1711 247.97 1714.01 256.515C1717.1 264.978 1719.67 272.18 1721.7 278.121C1723.82 283.98 1725.2 287.846 1725.85 289.718C1726.66 292.322 1726.38 294.723 1725 296.92C1723.61 299.117 1721.58 301.07 1718.89 302.779C1716.29 304.407 1713.28 305.709 1709.86 306.686C1706.44 307.743 1703.15 308.395 1699.97 308.639C1696.88 308.883 1694.15 308.679 1691.79 308.028C1689.43 307.459 1687.97 306.401 1687.4 304.854L1670.31 258.59ZM1613.06 216.72L1655.05 216.842L1634.05 159.591L1613.06 216.72ZM1831.69 88.9121C1833.39 88.9121 1834.94 89.9701 1836.32 92.0859C1837.71 94.2018 1838.77 96.8467 1839.5 100.021C1840.31 103.194 1840.76 106.612 1840.84 110.274C1841 113.937 1840.68 117.354 1839.86 120.528C1839.13 123.702 1837.91 126.347 1836.2 128.463C1834.49 130.497 1832.21 131.515 1829.37 131.515L1797.26 131.393L1797.99 299.728C1797.99 301.437 1796.94 302.983 1794.82 304.366C1792.7 305.75 1790.02 306.808 1786.76 307.54C1783.51 308.354 1780.01 308.801 1776.27 308.883C1772.52 309.046 1769.02 308.72 1765.77 307.906C1762.59 307.174 1759.91 305.953 1757.71 304.244C1755.6 302.535 1754.58 300.257 1754.66 297.408C1754.66 295.536 1754.66 292.363 1754.66 287.887C1754.74 283.411 1754.78 278.04 1754.78 271.773C1754.78 265.426 1754.78 258.386 1754.78 250.655C1754.78 242.843 1754.78 234.705 1754.78 226.241C1754.86 217.696 1754.9 209.07 1754.9 200.362C1754.9 191.573 1754.9 183.028 1754.9 174.728C1754.9 166.427 1754.9 158.574 1754.9 151.168C1754.9 143.681 1754.9 137.008 1754.9 131.148L1720.97 130.904C1719.42 130.904 1718.08 129.887 1716.94 127.853C1715.88 125.737 1715.03 123.132 1714.38 120.04C1713.81 116.948 1713.48 113.611 1713.4 110.03C1713.32 106.45 1713.52 103.113 1714.01 100.021C1714.5 96.9281 1715.23 94.3646 1716.21 92.3301C1717.26 90.2956 1718.65 89.2783 1720.36 89.2783L1831.69 88.9121ZM1863.91 305.221C1862.2 305.221 1860.66 304.163 1859.27 302.047C1857.89 299.931 1856.79 297.286 1855.98 294.112C1855.25 290.938 1854.8 287.521 1854.63 283.858C1854.55 280.196 1854.88 276.778 1855.61 273.604C1856.43 270.431 1857.69 267.826 1859.4 265.792C1861.1 263.676 1863.38 262.618 1866.23 262.618L1895.65 262.74C1895.65 256.474 1895.65 249.719 1895.65 242.477C1895.65 235.152 1895.65 227.584 1895.65 219.771C1895.65 211.959 1895.65 204.065 1895.65 196.09C1895.73 188.115 1895.77 180.302 1895.77 172.652C1895.77 165.003 1895.77 157.678 1895.77 150.68C1895.77 143.6 1895.77 137.089 1895.77 131.148L1861.84 130.904C1860.29 130.904 1858.95 129.887 1857.81 127.853C1856.75 125.737 1855.9 123.132 1855.25 120.04C1854.68 116.948 1854.35 113.611 1854.27 110.03C1854.19 106.45 1854.39 103.113 1854.88 100.021C1855.37 96.9281 1856.1 94.3646 1857.08 92.3301C1858.13 90.2956 1859.52 89.2783 1861.23 89.2783L1972.55 88.9121C1974.26 88.9121 1975.81 89.9701 1977.19 92.0859C1978.58 94.2018 1979.63 96.8467 1980.37 100.021C1981.18 103.194 1981.63 106.612 1981.71 110.274C1981.87 113.937 1981.55 117.354 1980.73 120.528C1980 123.702 1978.78 126.347 1977.07 128.463C1975.36 130.497 1973.08 131.515 1970.24 131.515L1938.13 131.393L1938.74 262.984L1974.87 263.229C1976.42 263.229 1977.72 264.286 1978.78 266.402C1979.92 268.437 1980.77 271 1981.34 274.093C1981.99 277.185 1982.36 280.522 1982.44 284.103C1982.52 287.683 1982.32 291.02 1981.83 294.112C1981.34 297.205 1980.57 299.768 1979.51 301.803C1978.45 303.837 1977.11 304.854 1975.48 304.854L1863.91 305.221ZM2098.17 311.446C2084.74 311.609 2072.65 309.615 2061.91 305.465C2051.25 301.314 2041.93 295.659 2033.96 288.497C2025.98 281.254 2019.35 272.831 2014.06 263.229C2008.77 253.544 2004.82 243.25 2002.22 232.345C1999.61 221.44 1998.31 210.25 1998.31 198.775C1998.39 187.301 1999.78 176.111 2002.46 165.206C2005.15 154.301 2009.14 144.007 2014.42 134.322C2019.71 124.638 2026.31 116.174 2034.2 108.932C2042.18 101.607 2051.37 95.8701 2061.79 91.7197C2072.29 87.488 2084.05 85.3721 2097.07 85.3721C2109.52 85.3721 2120.71 87.488 2130.64 91.7197C2140.56 95.9515 2149.23 101.689 2156.64 108.932C2164.12 116.093 2170.31 124.516 2175.19 134.2C2180.16 143.803 2183.86 154.016 2186.3 164.84C2188.82 175.582 2190.08 186.69 2190.08 198.165C2190.08 209.558 2188.82 220.667 2186.3 231.49C2183.86 242.314 2180.16 252.568 2175.19 262.252C2170.31 271.855 2164.21 280.278 2156.88 287.521C2149.56 294.763 2140.97 300.541 2131.12 304.854C2121.36 309.168 2110.37 311.365 2098.17 311.446ZM2091.7 129.073C2082.74 129.643 2074.89 132.084 2068.14 136.397C2061.46 140.711 2055.89 146.204 2051.41 152.877C2046.94 159.469 2043.6 166.956 2041.4 175.338C2039.21 183.639 2038.15 192.102 2038.23 200.729C2038.31 209.273 2039.53 217.656 2041.89 225.875C2044.33 234.013 2047.91 241.297 2052.63 247.726C2057.35 254.155 2063.25 259.322 2070.33 263.229C2077.41 267.135 2085.67 269.129 2095.11 269.21C2101.95 269.291 2108.13 267.989 2113.67 265.304C2119.28 262.618 2124.17 258.997 2128.32 254.439C2132.55 249.882 2136.09 244.552 2138.94 238.448C2141.78 232.263 2143.9 225.753 2145.28 218.917C2146.75 212 2147.48 204.96 2147.48 197.799C2147.48 190.556 2146.75 183.557 2145.28 176.803C2143.9 169.967 2141.74 163.578 2138.81 157.638C2135.88 151.616 2132.18 146.448 2127.71 142.135C2123.23 137.74 2117.98 134.363 2111.96 132.003C2106.02 129.643 2099.26 128.666 2091.7 129.073ZM2387.47 298.995C2387.47 300.623 2386.66 302.169 2385.03 303.634C2383.48 305.017 2381.41 306.197 2378.8 307.174C2376.28 308.232 2373.43 309.005 2370.26 309.493C2367.17 309.981 2364.12 310.144 2361.1 309.981C2358.17 309.819 2355.45 309.29 2352.93 308.395C2350.4 307.499 2348.49 306.157 2347.19 304.366C2345.32 301.843 2342.39 297.815 2338.4 292.281C2334.49 286.666 2329.85 280.074 2324.48 272.506C2319.19 264.938 2313.38 256.637 2307.03 247.604C2300.68 238.489 2294.17 229.171 2287.5 219.649C2280.9 210.047 2274.27 200.484 2267.6 190.963C2261.01 181.441 2254.74 172.449 2248.8 163.985L2249.65 299.728C2249.65 301.437 2248.6 302.983 2246.48 304.366C2244.36 305.75 2241.68 306.808 2238.42 307.54C2235.25 308.354 2231.75 308.801 2227.93 308.883C2224.18 309.046 2220.68 308.72 2217.43 307.906C2214.25 307.174 2211.61 305.953 2209.49 304.244C2207.38 302.535 2206.32 300.257 2206.32 297.408L2207.05 94.0391C2207.05 92.9811 2207.91 91.9639 2209.62 90.9873C2211.32 89.9294 2213.48 88.9935 2216.08 88.1797C2218.69 87.3659 2221.58 86.7148 2224.75 86.2266C2227.93 85.7383 2230.98 85.5348 2233.91 85.6162C2236.92 85.6162 2239.6 85.9417 2241.96 86.5928C2244.32 87.2438 2246.03 88.3018 2247.09 89.7666L2344.38 225.997C2344.38 216.801 2344.38 207.361 2344.38 197.677C2344.46 187.993 2344.5 178.512 2344.5 169.234C2344.5 159.957 2344.5 151.127 2344.5 142.745C2344.5 134.282 2344.5 126.673 2344.5 119.918C2344.58 113.163 2344.62 107.467 2344.62 102.828C2344.71 98.1895 2344.79 95.0156 2344.87 93.3066C2344.87 91.7604 2345.89 90.4176 2347.92 89.2783C2350.04 88.139 2352.6 87.2845 2355.61 86.7148C2358.7 86.0638 2362 85.6976 2365.5 85.6162C2369.08 85.4535 2372.38 85.5755 2375.39 85.9824C2378.48 86.3893 2381.04 87.1217 2383.08 88.1797C2385.11 89.2376 2386.13 90.5804 2386.13 92.208L2387.47 298.995ZM2533.71 251.754C2533.71 261.357 2532.17 269.739 2529.07 276.9C2525.98 283.98 2521.83 289.881 2516.62 294.601C2511.5 299.321 2505.55 302.861 2498.8 305.221C2492.05 307.581 2485.05 308.761 2477.8 308.761C2470.97 308.761 2464.05 307.784 2457.05 305.831C2450.05 303.878 2443.3 301.111 2436.79 297.53C2430.36 293.95 2424.3 289.596 2418.6 284.469C2412.98 279.342 2408.06 273.604 2403.83 267.257C2402.69 265.548 2402.4 263.554 2402.97 261.275C2403.54 258.915 2404.64 256.555 2406.27 254.195C2407.9 251.754 2409.85 249.475 2412.13 247.359C2414.49 245.243 2416.81 243.535 2419.09 242.232C2421.45 240.849 2423.65 240.076 2425.68 239.913C2427.71 239.669 2429.26 240.279 2430.32 241.744C2433.09 245.65 2436.18 249.231 2439.6 252.486C2443.1 255.742 2446.72 258.59 2450.46 261.031C2454.2 263.473 2458.03 265.426 2461.93 266.891C2465.84 268.274 2469.62 269.088 2473.29 269.332C2476.54 269.576 2479.31 269.251 2481.59 268.355C2483.87 267.379 2485.66 266.077 2486.96 264.449C2488.26 262.74 2489.16 260.787 2489.64 258.59C2490.21 256.393 2490.46 254.114 2490.38 251.754C2490.3 249.394 2489.89 247.075 2489.16 244.796C2488.42 242.436 2487.53 240.32 2486.47 238.448C2484.11 234.461 2480.86 230.473 2476.71 226.485C2472.55 222.498 2467.96 218.51 2462.91 214.522C2457.95 210.453 2452.74 206.384 2447.29 202.315C2441.92 198.165 2436.75 193.933 2431.78 189.62C2426.9 185.307 2422.42 180.912 2418.36 176.437C2414.37 171.961 2411.28 167.322 2409.08 162.521C2405.42 154.464 2403.79 146.326 2404.2 138.106C2404.6 129.806 2406.76 122.075 2410.67 114.913C2413.68 109.216 2417.34 104.374 2421.65 100.387C2426.05 96.3177 2430.77 93.1032 2435.81 90.7432C2440.94 88.3018 2446.35 86.6742 2452.05 85.8604C2457.74 84.9652 2463.48 84.8431 2469.26 85.4941C2475.12 86.0638 2480.9 87.3659 2486.59 89.4004C2492.29 91.4349 2497.7 94.1204 2502.83 97.457C2505.11 98.9219 2507.71 100.875 2510.64 103.316C2513.65 105.676 2516.62 108.24 2519.55 111.007C2522.56 113.692 2525.33 116.378 2527.85 119.063C2530.38 121.668 2532.29 123.946 2533.59 125.899C2535.05 128.178 2535.42 130.538 2534.69 132.979C2534.04 135.34 2532.69 137.659 2530.66 139.938C2528.71 142.135 2526.27 144.169 2523.34 146.041C2520.49 147.831 2517.64 149.256 2514.79 150.313C2511.94 151.29 2509.3 151.86 2506.86 152.022C2504.5 152.104 2502.83 151.493 2501.85 150.191C2496.81 144.007 2491.39 139.042 2485.62 135.299C2479.92 131.474 2474.47 128.87 2469.26 127.486C2464.05 126.021 2459.45 125.818 2455.46 126.876C2451.48 127.853 2448.71 130.05 2447.16 133.468C2445.86 136.316 2445.74 139.368 2446.8 142.623C2447.86 145.797 2449.73 149.133 2452.41 152.633C2455.18 156.132 2458.56 159.754 2462.54 163.497C2466.61 167.241 2470.97 171.065 2475.61 174.972C2480.33 178.797 2485.13 182.703 2490.01 186.69C2494.97 190.678 2499.69 194.666 2504.17 198.653C2508.65 202.56 2512.72 206.507 2516.38 210.494C2520.04 214.4 2522.97 218.225 2525.17 221.969C2527.77 226.607 2529.85 231.368 2531.39 236.251C2532.94 241.134 2533.71 246.301 2533.71 251.754Z" fill="#00A6F1"/>
<g clip-path="url(#clip1_629_42)">
<path d="M672.778 765C768.753 765 846.556 687.197 846.556 591.222C846.556 495.247 768.753 417.444 672.778 417.444C576.803 417.444 499 495.247 499 591.222C499 687.197 576.803 765 672.778 765Z" fill="#FFCC4D"/>
<path d="M682.99 688.333C694.281 688.333 703.434 676.892 703.434 662.778C703.434 648.664 694.281 637.222 682.99 637.222C671.699 637.222 662.545 648.664 662.545 662.778C662.545 676.892 671.699 688.333 682.99 688.333Z" fill="#664500"/>
<path d="M581.912 615.582C580.086 615.58 578.293 615.088 576.72 614.158C575.148 613.228 573.853 611.894 572.972 610.294C572.09 608.694 571.653 606.887 571.706 605.061C571.759 603.235 572.301 601.457 573.275 599.911C582.638 585.058 611.107 559.656 651.884 569.633C654.463 570.327 656.667 572.004 658.026 574.303C659.385 576.603 659.79 579.343 659.154 581.937C658.518 584.531 656.892 586.773 654.624 588.184C652.356 589.594 649.626 590.061 647.018 589.484C610.177 580.468 590.775 610.501 590.581 610.808C589.658 612.272 588.378 613.477 586.862 614.312C585.346 615.147 583.643 615.584 581.912 615.582V615.582ZM704.303 577.33C702.194 577.332 700.135 576.681 698.411 575.467C696.686 574.252 695.379 572.534 694.669 570.548C693.959 568.562 693.881 566.404 694.446 564.372C695.01 562.34 696.19 560.532 697.822 559.196C730.288 532.577 766.945 543.229 781.798 552.592C784.094 554.035 785.723 556.33 786.327 558.974C786.931 561.617 786.46 564.392 785.018 566.689C783.576 568.985 781.28 570.614 778.636 571.218C775.993 571.822 773.218 571.351 770.921 569.909C769.511 569.05 739.723 551.274 710.774 575.01C708.953 576.513 706.664 577.334 704.303 577.33Z" fill="#664500"/>
<path d="M635.426 716.679C634.241 716.68 633.072 716.406 632.011 715.878C630.949 715.351 630.025 714.584 629.31 713.639C628.595 712.694 628.108 711.597 627.889 710.432C627.67 709.267 627.723 708.068 628.045 706.927C632.513 691.185 630.683 675.964 623.037 665.159C617.956 657.983 610.719 653.598 603.175 653.118C598.943 652.862 595.733 649.213 595.999 644.991C596.265 640.769 599.893 637.314 604.125 637.825C616.321 638.582 627.769 645.318 635.538 656.297C645.873 670.904 648.521 690.879 642.786 711.098C642.334 712.703 641.371 714.116 640.042 715.124C638.714 716.131 637.093 716.677 635.426 716.679V716.679ZM748.249 685.389C746.751 685.391 745.285 684.95 744.037 684.122C732.108 676.251 725.433 662.481 725.719 646.351C726.015 629.637 733.989 614.12 746 606.801C746.859 606.276 747.813 605.926 748.808 605.77C749.803 605.615 750.819 605.658 751.797 605.896C752.775 606.135 753.697 606.564 754.509 607.16C755.321 607.755 756.007 608.505 756.529 609.367C757.054 610.226 757.404 611.18 757.559 612.175C757.714 613.17 757.671 614.186 757.433 615.164C757.195 616.142 756.765 617.064 756.17 617.876C755.574 618.688 754.824 619.374 753.963 619.895C746.449 624.475 741.246 635.219 741.042 646.616C740.837 657.401 745.018 666.407 752.47 671.323C753.846 672.231 754.893 673.559 755.455 675.108C756.017 676.658 756.065 678.348 755.591 679.927C755.117 681.505 754.147 682.89 752.824 683.874C751.502 684.858 749.897 685.389 748.249 685.389V685.389Z" fill="#E2A62D"/>
<path d="M674.608 424.804C674.084 424.289 673.405 423.962 672.676 423.874C672.676 423.874 509.897 392.972 502.854 399.187C495.821 405.413 506.565 570.757 506.565 570.757C506.616 571.585 506.8 572.291 507.249 572.791C513.424 579.783 555.887 552.306 602.101 511.448C648.326 470.579 680.782 431.796 674.608 424.804V424.804Z" fill="#DD2E44"/>
<path d="M502.568 399.77C502.383 400.17 502.252 400.593 502.179 401.028C503.805 415.042 519.506 530.359 529.289 566.403C543.968 558.194 558.882 547.042 576.403 533.15C561.519 505.908 510.837 398.493 502.568 399.77Z" fill="#EA596E"/>
<path d="M804.665 695.785L696.585 682.466C685.034 681.423 664.723 681.321 665.765 663.023C666.716 646.432 686.619 648.988 701.328 651.165L810.072 669.3L804.665 695.785V695.785Z" fill="#3B88C3"/>
<path d="M810.062 669.31L766.904 661.909C761.854 660.999 757.356 668.523 757.132 676.486C756.876 685.338 759.452 689.816 764.553 690.858L806.914 696.092L810.062 669.31V669.31Z" fill="#88C9F9"/>
<path d="M855.939 666.264L829.137 690.909L781.225 638.807L808.028 614.161C814.749 608.015 823.63 604.779 832.73 605.16C841.83 605.541 850.409 609.509 856.594 616.195L857.974 617.698C864.117 624.421 867.351 633.301 866.97 642.4C866.589 651.499 862.624 660.078 855.939 666.264V666.264Z" fill="#3B88C3"/>
<path d="M829.12 690.923C840.632 680.339 839.24 660.095 826.011 645.707C812.783 631.319 792.726 628.236 781.215 638.821C769.703 649.405 771.095 669.649 784.323 684.037C797.552 698.425 817.608 701.508 829.12 690.923Z" fill="#88C9F9"/>
<path d="M819.538 680.501C825.294 675.209 823.526 663.921 815.589 655.29C807.653 646.658 796.553 643.951 790.797 649.243C785.041 654.535 786.809 665.823 794.745 674.455C802.682 683.086 813.782 685.794 819.538 680.501Z" fill="#226699"/>
<path d="M524.556 754.778C533.024 754.778 539.889 747.913 539.889 739.444C539.889 730.976 533.024 724.111 524.556 724.111C516.087 724.111 509.222 730.976 509.222 739.444C509.222 747.913 516.087 754.778 524.556 754.778Z" fill="#55ACEE"/>
<path d="M795.444 437.889C806.736 437.889 815.889 428.736 815.889 417.444C815.889 406.153 806.736 397 795.444 397C784.153 397 775 406.153 775 417.444C775 428.736 784.153 437.889 795.444 437.889Z" fill="#55ACEE"/>
<path d="M548.721 695.959L524.821 638.551L503.211 700.344L548.721 695.959ZM764.778 448.111L723.889 458.333L734.111 417.444L764.778 448.111Z" fill="#EA596E"/>
<path d="M826.101 529.889L867 478.767L836.334 458.333L826.101 529.889Z" fill="#77B255"/>
</g>
<g clip-path="url(#clip2_629_42)">
<path d="M1256.78 775C1352.75 775 1430.56 697.197 1430.56 601.222C1430.56 505.247 1352.75 427.444 1256.78 427.444C1160.8 427.444 1083 505.247 1083 601.222C1083 697.197 1160.8 775 1256.78 775Z" fill="#FFCC4D"/>
<path d="M1266.99 698.333C1278.28 698.333 1287.43 686.892 1287.43 672.778C1287.43 658.664 1278.28 647.222 1266.99 647.222C1255.7 647.222 1246.55 658.664 1246.55 672.778C1246.55 686.892 1255.7 698.333 1266.99 698.333Z" fill="#664500"/>
<path d="M1165.91 625.582C1164.09 625.58 1162.29 625.088 1160.72 624.158C1159.15 623.228 1157.85 621.894 1156.97 620.294C1156.09 618.694 1155.65 616.887 1155.71 615.061C1155.76 613.235 1156.3 611.457 1157.27 609.911C1166.64 595.058 1195.11 569.656 1235.88 579.633C1238.46 580.327 1240.67 582.004 1242.03 584.303C1243.38 586.603 1243.79 589.343 1243.15 591.937C1242.52 594.531 1240.89 596.773 1238.62 598.184C1236.36 599.594 1233.63 600.061 1231.02 599.484C1194.18 590.468 1174.78 620.501 1174.58 620.808C1173.66 622.272 1172.38 623.477 1170.86 624.312C1169.35 625.147 1167.64 625.584 1165.91 625.582V625.582ZM1288.3 587.33C1286.19 587.332 1284.14 586.681 1282.41 585.467C1280.69 584.252 1279.38 582.534 1278.67 580.548C1277.96 578.562 1277.88 576.404 1278.45 574.372C1279.01 572.34 1280.19 570.532 1281.82 569.196C1314.29 542.577 1350.94 553.229 1365.8 562.592C1368.09 564.035 1369.72 566.33 1370.33 568.974C1370.93 571.617 1370.46 574.392 1369.02 576.689C1367.58 578.985 1365.28 580.614 1362.64 581.218C1359.99 581.822 1357.22 581.351 1354.92 579.909C1353.51 579.05 1323.72 561.274 1294.77 585.01C1292.95 586.513 1290.66 587.334 1288.3 587.33Z" fill="#664500"/>
<path d="M1219.43 726.679C1218.24 726.68 1217.07 726.406 1216.01 725.878C1214.95 725.351 1214.02 724.584 1213.31 723.639C1212.59 722.694 1212.11 721.597 1211.89 720.432C1211.67 719.267 1211.72 718.068 1212.05 716.927C1216.51 701.185 1214.68 685.964 1207.04 675.159C1201.96 667.983 1194.72 663.598 1187.17 663.118C1182.94 662.862 1179.73 659.213 1180 654.991C1180.26 650.769 1183.89 647.314 1188.13 647.825C1200.32 648.582 1211.77 655.318 1219.54 666.297C1229.87 680.904 1232.52 700.879 1226.79 721.098C1226.33 722.703 1225.37 724.116 1224.04 725.124C1222.71 726.131 1221.09 726.677 1219.43 726.679V726.679ZM1332.25 695.389C1330.75 695.391 1329.29 694.95 1328.04 694.122C1316.11 686.251 1309.43 672.481 1309.72 656.351C1310.02 639.637 1317.99 624.12 1330 616.801C1330.86 616.276 1331.81 615.926 1332.81 615.77C1333.8 615.615 1334.82 615.658 1335.8 615.896C1336.78 616.135 1337.7 616.564 1338.51 617.16C1339.32 617.755 1340.01 618.505 1340.53 619.367C1341.05 620.226 1341.4 621.18 1341.56 622.175C1341.71 623.17 1341.67 624.186 1341.43 625.164C1341.19 626.142 1340.77 627.064 1340.17 627.876C1339.57 628.688 1338.82 629.374 1337.96 629.895C1330.45 634.475 1325.25 645.219 1325.04 656.616C1324.84 667.401 1329.02 676.407 1336.47 681.323C1337.85 682.231 1338.89 683.559 1339.46 685.108C1340.02 686.658 1340.06 688.348 1339.59 689.927C1339.12 691.505 1338.15 692.89 1336.82 693.874C1335.5 694.858 1333.9 695.389 1332.25 695.389V695.389Z" fill="#E2A62D"/>
<path d="M1258.61 434.804C1258.08 434.289 1257.4 433.962 1256.68 433.874C1256.68 433.874 1093.9 402.972 1086.85 409.187C1079.82 415.413 1090.56 580.757 1090.56 580.757C1090.62 581.585 1090.8 582.291 1091.25 582.791C1097.42 589.783 1139.89 562.306 1186.1 521.448C1232.33 480.579 1264.78 441.796 1258.61 434.804V434.804Z" fill="#DD2E44"/>
<path d="M1086.57 409.77C1086.38 410.17 1086.25 410.593 1086.18 411.028C1087.8 425.042 1103.51 540.359 1113.29 576.403C1127.97 568.194 1142.88 557.042 1160.4 543.15C1145.52 515.908 1094.84 408.493 1086.57 409.77Z" fill="#EA596E"/>
<path d="M1388.66 705.785L1280.59 692.466C1269.03 691.423 1248.72 691.321 1249.77 673.023C1250.72 656.432 1270.62 658.988 1285.33 661.165L1394.07 679.3L1388.66 705.785V705.785Z" fill="#3B88C3"/>
<path d="M1394.06 679.31L1350.9 671.909C1345.85 670.999 1341.36 678.523 1341.13 686.486C1340.88 695.338 1343.45 699.816 1348.55 700.858L1390.91 706.092L1394.06 679.31V679.31Z" fill="#88C9F9"/>
<path d="M1439.94 676.264L1413.14 700.909L1365.23 648.807L1392.03 624.161C1398.75 618.015 1407.63 614.779 1416.73 615.16C1425.83 615.541 1434.41 619.509 1440.59 626.195L1441.97 627.698C1448.12 634.421 1451.35 643.301 1450.97 652.4C1450.59 661.499 1446.62 670.078 1439.94 676.264V676.264Z" fill="#3B88C3"/>
<path d="M1413.12 700.923C1424.63 690.339 1423.24 670.095 1410.01 655.707C1396.78 641.319 1376.73 638.236 1365.21 648.821C1353.7 659.405 1355.09 679.649 1368.32 694.037C1381.55 708.425 1401.61 711.508 1413.12 700.923Z" fill="#88C9F9"/>
<path d="M1403.54 690.501C1409.29 685.209 1407.53 673.921 1399.59 665.29C1391.65 656.658 1380.55 653.951 1374.8 659.243C1369.04 664.535 1370.81 675.823 1378.75 684.455C1386.68 693.086 1397.78 695.794 1403.54 690.501Z" fill="#226699"/>
<path d="M1108.56 764.778C1117.02 764.778 1123.89 757.913 1123.89 749.444C1123.89 740.976 1117.02 734.111 1108.56 734.111C1100.09 734.111 1093.22 740.976 1093.22 749.444C1093.22 757.913 1100.09 764.778 1108.56 764.778Z" fill="#55ACEE"/>
<path d="M1379.44 447.889C1390.74 447.889 1399.89 438.736 1399.89 427.444C1399.89 416.153 1390.74 407 1379.44 407C1368.15 407 1359 416.153 1359 427.444C1359 438.736 1368.15 447.889 1379.44 447.889Z" fill="#55ACEE"/>
<path d="M1132.72 705.959L1108.82 648.551L1087.21 710.344L1132.72 705.959ZM1348.78 458.111L1307.89 468.333L1318.11 427.444L1348.78 458.111Z" fill="#EA596E"/>
<path d="M1410.1 539.889L1451 488.767L1420.33 468.333L1410.1 539.889Z" fill="#77B255"/>
</g>
<g clip-path="url(#clip3_629_42)">
<path d="M1840.78 775C1936.75 775 2014.56 697.197 2014.56 601.222C2014.56 505.247 1936.75 427.444 1840.78 427.444C1744.8 427.444 1667 505.247 1667 601.222C1667 697.197 1744.8 775 1840.78 775Z" fill="#FFCC4D"/>
<path d="M1850.99 698.333C1862.28 698.333 1871.43 686.892 1871.43 672.778C1871.43 658.664 1862.28 647.222 1850.99 647.222C1839.7 647.222 1830.55 658.664 1830.55 672.778C1830.55 686.892 1839.7 698.333 1850.99 698.333Z" fill="#664500"/>
<path d="M1749.91 625.582C1748.09 625.58 1746.29 625.088 1744.72 624.158C1743.15 623.228 1741.85 621.894 1740.97 620.294C1740.09 618.694 1739.65 616.887 1739.71 615.061C1739.76 613.235 1740.3 611.457 1741.27 609.911C1750.64 595.058 1779.11 569.656 1819.88 579.633C1822.46 580.327 1824.67 582.004 1826.03 584.303C1827.38 586.603 1827.79 589.343 1827.15 591.937C1826.52 594.531 1824.89 596.773 1822.62 598.184C1820.36 599.594 1817.63 600.061 1815.02 599.484C1778.18 590.468 1758.78 620.501 1758.58 620.808C1757.66 622.272 1756.38 623.477 1754.86 624.312C1753.35 625.147 1751.64 625.584 1749.91 625.582V625.582ZM1872.3 587.33C1870.19 587.332 1868.14 586.681 1866.41 585.467C1864.69 584.252 1863.38 582.534 1862.67 580.548C1861.96 578.562 1861.88 576.404 1862.45 574.372C1863.01 572.34 1864.19 570.532 1865.82 569.196C1898.29 542.577 1934.94 553.229 1949.8 562.592C1952.09 564.035 1953.72 566.33 1954.33 568.974C1954.93 571.617 1954.46 574.392 1953.02 576.689C1951.58 578.985 1949.28 580.614 1946.64 581.218C1943.99 581.822 1941.22 581.351 1938.92 579.909C1937.51 579.05 1907.72 561.274 1878.77 585.01C1876.95 586.513 1874.66 587.334 1872.3 587.33Z" fill="#664500"/>
<path d="M1803.43 726.679C1802.24 726.68 1801.07 726.406 1800.01 725.878C1798.95 725.351 1798.02 724.584 1797.31 723.639C1796.59 722.694 1796.11 721.597 1795.89 720.432C1795.67 719.267 1795.72 718.068 1796.05 716.927C1800.51 701.185 1798.68 685.964 1791.04 675.159C1785.96 667.983 1778.72 663.598 1771.17 663.118C1766.94 662.862 1763.73 659.213 1764 654.991C1764.26 650.769 1767.89 647.314 1772.13 647.825C1784.32 648.582 1795.77 655.318 1803.54 666.297C1813.87 680.904 1816.52 700.879 1810.79 721.098C1810.33 722.703 1809.37 724.116 1808.04 725.124C1806.71 726.131 1805.09 726.677 1803.43 726.679V726.679ZM1916.25 695.389C1914.75 695.391 1913.29 694.95 1912.04 694.122C1900.11 686.251 1893.43 672.481 1893.72 656.351C1894.02 639.637 1901.99 624.12 1914 616.801C1914.86 616.276 1915.81 615.926 1916.81 615.77C1917.8 615.615 1918.82 615.658 1919.8 615.896C1920.78 616.135 1921.7 616.564 1922.51 617.16C1923.32 617.755 1924.01 618.505 1924.53 619.367C1925.05 620.226 1925.4 621.18 1925.56 622.175C1925.71 623.17 1925.67 624.186 1925.43 625.164C1925.19 626.142 1924.77 627.064 1924.17 627.876C1923.57 628.688 1922.82 629.374 1921.96 629.895C1914.45 634.475 1909.25 645.219 1909.04 656.616C1908.84 667.401 1913.02 676.407 1920.47 681.323C1921.85 682.231 1922.89 683.559 1923.46 685.108C1924.02 686.658 1924.06 688.348 1923.59 689.927C1923.12 691.505 1922.15 692.89 1920.82 693.874C1919.5 694.858 1917.9 695.389 1916.25 695.389V695.389Z" fill="#E2A62D"/>
<path d="M1842.61 434.804C1842.08 434.289 1841.4 433.962 1840.68 433.874C1840.68 433.874 1677.9 402.972 1670.85 409.187C1663.82 415.413 1674.56 580.757 1674.56 580.757C1674.62 581.585 1674.8 582.291 1675.25 582.791C1681.42 589.783 1723.89 562.306 1770.1 521.448C1816.33 480.579 1848.78 441.796 1842.61 434.804V434.804Z" fill="#DD2E44"/>
<path d="M1670.57 409.77C1670.38 410.17 1670.25 410.593 1670.18 411.028C1671.8 425.042 1687.51 540.359 1697.29 576.403C1711.97 568.194 1726.88 557.042 1744.4 543.15C1729.52 515.908 1678.84 408.493 1670.57 409.77Z" fill="#EA596E"/>
<path d="M1972.66 705.785L1864.59 692.466C1853.03 691.423 1832.72 691.321 1833.77 673.023C1834.72 656.432 1854.62 658.988 1869.33 661.165L1978.07 679.3L1972.66 705.785V705.785Z" fill="#3B88C3"/>
<path d="M1978.06 679.31L1934.9 671.909C1929.85 670.999 1925.36 678.523 1925.13 686.486C1924.88 695.338 1927.45 699.816 1932.55 700.858L1974.91 706.092L1978.06 679.31V679.31Z" fill="#88C9F9"/>
<path d="M2023.94 676.264L1997.14 700.909L1949.23 648.807L1976.03 624.161C1982.75 618.015 1991.63 614.779 2000.73 615.16C2009.83 615.541 2018.41 619.509 2024.59 626.195L2025.97 627.698C2032.12 634.421 2035.35 643.301 2034.97 652.4C2034.59 661.499 2030.62 670.078 2023.94 676.264V676.264Z" fill="#3B88C3"/>
<path d="M1997.12 700.923C2008.63 690.339 2007.24 670.095 1994.01 655.707C1980.78 641.319 1960.73 638.236 1949.21 648.821C1937.7 659.405 1939.09 679.649 1952.32 694.037C1965.55 708.425 1985.61 711.508 1997.12 700.923Z" fill="#88C9F9"/>
<path d="M1987.54 690.501C1993.29 685.209 1991.53 673.921 1983.59 665.29C1975.65 656.658 1964.55 653.951 1958.8 659.243C1953.04 664.535 1954.81 675.823 1962.75 684.455C1970.68 693.086 1981.78 695.794 1987.54 690.501Z" fill="#226699"/>
<path d="M1692.56 764.778C1701.02 764.778 1707.89 757.913 1707.89 749.444C1707.89 740.976 1701.02 734.111 1692.56 734.111C1684.09 734.111 1677.22 740.976 1677.22 749.444C1677.22 757.913 1684.09 764.778 1692.56 764.778Z" fill="#55ACEE"/>
<path d="M1963.44 447.889C1974.74 447.889 1983.89 438.736 1983.89 427.444C1983.89 416.153 1974.74 407 1963.44 407C1952.15 407 1943 416.153 1943 427.444C1943 438.736 1952.15 447.889 1963.44 447.889Z" fill="#55ACEE"/>
<path d="M1716.72 705.959L1692.82 648.551L1671.21 710.344L1716.72 705.959ZM1932.78 458.111L1891.89 468.333L1902.11 427.444L1932.78 458.111Z" fill="#EA596E"/>
<path d="M1994.1 539.889L2035 488.767L2004.33 468.333L1994.1 539.889Z" fill="#77B255"/>
</g>
</g>
<defs>
<clipPath id="clip0_629_42">
<rect width="2533" height="854" fill="white"/>
</clipPath>
<clipPath id="clip1_629_42">
<rect width="368" height="368" fill="white" transform="translate(499 397)"/>
</clipPath>
<clipPath id="clip2_629_42">
<rect width="368" height="368" fill="white" transform="translate(1083 407)"/>
</clipPath>
<clipPath id="clip3_629_42">
<rect width="368" height="368" fill="white" transform="translate(1667 407)"/>
</clipPath>
</defs>
</svg>
