<svg width="2533" height="854" viewBox="0 0 2533 854" fill="none" xmlns="http://www.w3.org/2000/svg">
<g clip-path="url(#clip0_629_94)">
<path d="M626.485 180.343C630.066 180.343 633.036 181.238 635.396 183.028C637.838 184.737 639.75 187.016 641.134 189.864C642.599 192.631 643.657 195.764 644.308 199.264C644.959 202.682 645.366 206.1 645.528 209.518C645.772 212.854 645.813 215.947 645.65 218.795C645.488 221.643 645.366 223.881 645.284 225.509C644.145 239.425 641.663 251.591 637.838 262.008C634.094 272.343 629.171 281.01 623.067 288.009C616.964 294.926 609.762 300.175 601.461 303.756C593.242 307.337 584.127 309.249 574.117 309.493C564.026 309.737 554.83 308.517 546.529 305.831C538.31 303.146 530.945 299.321 524.435 294.356C517.924 289.392 512.309 283.451 507.589 276.534C502.869 269.535 498.963 261.845 495.87 253.463C492.778 244.999 490.458 235.966 488.912 226.363C487.447 216.76 486.715 206.873 486.715 196.7C486.715 180.017 488.831 164.881 493.062 151.29C497.376 137.618 503.398 125.94 511.129 116.256C518.86 106.49 528.056 98.9626 538.717 93.6729C549.459 88.3831 561.3 85.6976 574.239 85.6162C581.319 85.6162 588.155 86.43 594.747 88.0576C601.339 89.6038 607.361 91.9639 612.813 95.1377C618.347 98.3115 623.189 102.218 627.34 106.856C631.49 111.495 634.664 116.866 636.861 122.97C637.594 124.923 637.309 126.957 636.007 129.073C634.705 131.189 632.833 133.183 630.392 135.055C628.032 136.926 625.305 138.595 622.213 140.06C619.202 141.443 616.231 142.46 613.302 143.111C610.372 143.762 607.727 143.966 605.367 143.722C603.007 143.396 601.38 142.42 600.484 140.792C597.717 135.909 593.893 132.247 589.01 129.806C584.127 127.283 577.779 126.347 569.967 126.998C564.352 127.486 558.899 129.358 553.609 132.613C548.32 135.868 543.6 140.426 539.449 146.285C535.299 152.063 531.922 159.062 529.317 167.281C526.713 175.501 525.248 184.778 524.923 195.113C524.516 207.727 525.533 218.673 527.975 227.95C530.416 237.228 533.753 244.959 537.984 251.144C542.298 257.247 547.262 261.845 552.877 264.938C558.492 267.949 564.311 269.495 570.333 269.576C575.216 269.658 579.61 268.803 583.517 267.013C587.504 265.141 590.882 262.211 593.648 258.224C596.415 254.236 598.613 249.109 600.24 242.843C601.868 236.576 602.804 229.09 603.048 220.382L562.887 220.26C561.34 220.26 559.998 219.283 558.858 217.33C557.719 215.377 556.783 212.936 556.051 210.006C555.4 207.076 554.993 203.943 554.83 200.606C554.667 197.188 554.789 194.015 555.196 191.085C555.603 188.155 556.295 185.714 557.271 183.761C558.248 181.808 559.591 180.831 561.3 180.831L626.485 180.343ZM779.073 258.59L706.563 258.102L689.596 304.122C689.026 305.668 687.561 306.726 685.201 307.296C682.841 307.947 680.074 308.15 676.9 307.906C673.808 307.662 670.553 307.011 667.135 305.953C663.717 304.977 660.665 303.674 657.979 302.047C655.375 300.338 653.341 298.385 651.876 296.188C650.493 293.99 650.248 291.59 651.144 288.985C651.632 287.439 652.568 284.632 653.951 280.562C655.416 276.493 657.206 271.489 659.322 265.548C661.52 259.607 663.961 252.893 666.646 245.406C669.332 237.919 672.14 230.025 675.069 221.725C678.08 213.424 681.173 204.879 684.347 196.09C687.521 187.301 690.654 178.674 693.746 170.211C696.839 161.666 699.809 153.447 702.657 145.553C705.506 137.577 708.11 130.253 710.47 123.58C712.911 116.907 715.027 111.088 716.817 106.124C718.608 101.078 719.951 97.2129 720.846 94.5273C721.415 92.8997 722.717 91.5977 724.752 90.6211C726.868 89.5632 729.35 88.79 732.198 88.3018C735.047 87.8135 738.098 87.61 741.354 87.6914C744.609 87.6914 747.66 87.9762 750.509 88.5459C753.357 89.0342 755.839 89.7666 757.955 90.7432C760.071 91.7197 761.414 92.859 761.983 94.1611C763.448 97.4163 765.523 102.503 768.209 109.42C770.895 116.256 773.987 124.272 777.486 133.468C780.986 142.664 784.729 152.674 788.717 163.497C792.704 174.239 796.692 185.063 800.68 195.968C804.749 206.873 808.696 217.574 812.521 228.072C816.345 238.489 819.763 247.97 822.774 256.515C825.867 264.978 828.43 272.18 830.465 278.121C832.581 283.98 833.964 287.846 834.615 289.718C835.429 292.322 835.144 294.723 833.761 296.92C832.377 299.117 830.343 301.07 827.657 302.779C825.053 304.407 822.042 305.709 818.624 306.686C815.206 307.743 811.91 308.395 808.736 308.639C805.644 308.883 802.918 308.679 800.558 308.028C798.198 307.459 796.733 306.401 796.163 304.854L779.073 258.59ZM721.822 216.72L763.814 216.842L742.818 159.591L721.822 216.72ZM920.187 92.8184C920.187 92.8184 920.227 92.9404 920.309 93.1846C920.471 93.4287 920.756 94.1204 921.163 95.2598C921.651 96.3991 922.343 98.1488 923.238 100.509C924.215 102.869 925.558 106.165 927.267 110.396C928.976 114.628 931.132 119.999 933.736 126.51C936.34 133.02 939.514 140.955 943.258 150.313C947.083 159.672 951.518 170.659 956.563 183.272C961.69 195.805 967.59 210.291 974.264 226.729C981.018 210.128 986.959 195.52 992.086 182.906C997.213 170.211 1001.65 159.184 1005.39 149.825C1009.22 140.385 1012.43 132.451 1015.04 126.021C1017.72 119.511 1019.88 114.181 1021.5 110.03C1023.21 105.799 1024.52 102.543 1025.41 100.265C1026.39 97.9046 1027.08 96.1956 1027.49 95.1377C1027.97 93.9984 1028.26 93.3473 1028.34 93.1846C1028.42 92.9404 1028.46 92.8184 1028.46 92.8184C1029.03 91.4349 1030.42 90.2956 1032.61 89.4004C1034.81 88.4238 1037.37 87.7321 1040.3 87.3252C1043.31 86.8369 1046.45 86.6335 1049.7 86.7148C1053.04 86.7148 1056.09 86.959 1058.86 87.4473C1061.71 87.9355 1064.07 88.668 1065.94 89.6445C1067.89 90.6211 1068.99 91.8011 1069.23 93.1846C1069.48 94.7308 1069.89 97.6198 1070.46 101.852C1071.02 106.083 1071.68 111.251 1072.41 117.354C1073.22 123.458 1074.12 130.335 1075.09 137.984C1076.15 145.634 1077.21 153.731 1078.27 162.276C1079.33 170.74 1080.42 179.448 1081.56 188.399C1082.78 197.351 1083.96 206.222 1085.1 215.011C1086.24 223.718 1087.3 232.182 1088.28 240.401C1089.34 248.539 1090.31 256.026 1091.21 262.862C1092.1 269.698 1092.88 275.72 1093.53 280.929C1094.26 286.137 1094.83 290.125 1095.24 292.892C1095.64 295.74 1094.87 298.141 1092.92 300.094C1091.04 302.047 1088.56 303.593 1085.47 304.732C1082.38 305.872 1078.96 306.604 1075.22 306.93C1071.47 307.337 1067.93 307.337 1064.6 306.93C1061.34 306.604 1058.53 305.872 1056.17 304.732C1053.89 303.674 1052.67 302.291 1052.51 300.582L1038.47 181.075C1035.46 188.725 1032.41 196.537 1029.32 204.513C1026.31 212.407 1023.3 220.178 1020.28 227.828C1017.27 235.396 1014.38 242.761 1011.62 249.923C1008.85 257.003 1006.29 263.513 1003.93 269.454C1001.57 275.313 999.451 280.522 997.579 285.079C995.789 289.555 994.365 293.054 993.307 295.577C992.737 296.879 991.476 297.978 989.522 298.873C987.569 299.687 985.291 300.338 982.687 300.826C980.082 301.233 977.275 301.437 974.264 301.437C971.334 301.437 968.526 301.233 965.841 300.826C963.237 300.419 960.958 299.768 959.005 298.873C957.133 297.978 955.912 296.879 955.343 295.577C954.285 293.054 952.82 289.555 950.948 285.079C949.158 280.522 947.083 275.313 944.723 269.454C942.363 263.513 939.799 257.003 937.032 249.923C934.265 242.761 931.376 235.396 928.365 227.828C925.354 220.178 922.302 212.407 919.21 204.513C916.118 196.537 913.106 188.725 910.177 181.075L896.139 300.582C895.895 302.291 894.633 303.674 892.354 304.732C890.076 305.872 887.268 306.604 883.932 306.93C880.676 307.337 877.177 307.337 873.434 306.93C869.69 306.604 866.272 305.872 863.18 304.732C860.087 303.593 857.564 302.047 855.611 300.094C853.74 298.141 853.007 295.74 853.414 292.892C853.821 290.125 854.35 286.137 855.001 280.929C855.733 275.72 856.547 269.698 857.442 262.862C858.338 256.026 859.273 248.539 860.25 240.401C861.308 232.182 862.407 223.718 863.546 215.011C864.685 206.222 865.825 197.351 866.964 188.399C868.185 179.448 869.324 170.74 870.382 162.276C871.44 153.731 872.457 145.634 873.434 137.984C874.492 130.335 875.387 123.458 876.119 117.354C876.933 111.251 877.625 106.083 878.194 101.852C878.764 97.6198 879.171 94.7308 879.415 93.1846C879.659 91.8011 880.717 90.6211 882.589 89.6445C884.542 88.668 886.902 87.9355 889.669 87.4473C892.517 86.959 895.569 86.7148 898.824 86.7148C902.161 86.6335 905.294 86.8369 908.224 87.3252C911.235 87.7321 913.798 88.4238 915.914 89.4004C918.111 90.2956 919.535 91.4349 920.187 92.8184ZM1155.05 177.901L1226.46 177.657C1228.17 177.657 1229.72 178.756 1231.1 180.953C1232.48 183.069 1233.54 185.755 1234.27 189.01C1235.09 192.184 1235.53 195.642 1235.62 199.386C1235.78 203.129 1235.45 206.629 1234.64 209.884C1233.91 213.058 1232.69 215.743 1230.98 217.94C1229.27 220.056 1226.99 221.074 1224.14 220.992L1155.17 220.26L1155.29 264.938H1235.01C1236.71 264.938 1238.26 265.995 1239.64 268.111C1241.03 270.146 1242.09 272.75 1242.82 275.924C1243.63 279.016 1244.08 282.394 1244.16 286.056C1244.32 289.636 1244 292.973 1243.18 296.065C1242.45 299.158 1241.23 301.762 1239.52 303.878C1237.81 305.912 1235.53 306.889 1232.69 306.808C1227.32 306.726 1221.17 306.686 1214.25 306.686C1207.42 306.686 1200.22 306.686 1192.65 306.686C1185.08 306.686 1177.39 306.686 1169.58 306.686C1161.76 306.767 1154.24 306.808 1146.99 306.808C1140.81 306.808 1135.64 306.482 1131.49 305.831C1127.34 305.261 1123.96 304.326 1121.36 303.023C1118.84 301.721 1116.92 300.012 1115.62 297.896C1114.4 295.699 1113.55 293.054 1113.06 289.962C1112.57 286.869 1112.33 283.289 1112.33 279.22C1112.33 275.069 1112.33 270.349 1112.33 265.06L1111.96 127.608C1111.96 122.319 1111.96 117.639 1111.96 113.57C1111.96 109.42 1112.2 105.799 1112.69 102.706C1113.18 99.6136 1114.03 97.0094 1115.25 94.8936C1116.56 92.6963 1118.47 90.9466 1120.99 89.6445C1123.6 88.3424 1126.93 87.4066 1131 86.8369C1135.15 86.1859 1140.36 85.8604 1146.63 85.8604C1153.87 85.8604 1161.4 85.901 1169.21 85.9824C1177.02 85.9824 1184.71 85.9824 1192.28 85.9824C1199.85 85.9824 1207.05 85.9824 1213.89 85.9824C1220.81 85.9824 1226.95 85.9417 1232.32 85.8604C1235.17 85.8604 1237.45 86.9183 1239.16 89.0342C1240.87 91.0687 1242.09 93.6729 1242.82 96.8467C1243.63 99.9391 1243.96 103.357 1243.79 107.101C1243.71 110.763 1243.27 114.181 1242.45 117.354C1241.72 120.528 1240.66 123.173 1239.28 125.289C1237.89 127.405 1236.35 128.463 1234.64 128.463H1154.93L1155.05 177.901ZM1450.58 311.446C1437.15 311.609 1425.07 309.615 1414.33 305.465C1403.67 301.314 1394.35 295.659 1386.37 288.497C1378.4 281.254 1371.77 272.831 1366.48 263.229C1361.19 253.544 1357.24 243.25 1354.63 232.345C1352.03 221.44 1350.73 210.25 1350.73 198.775C1350.81 187.301 1352.19 176.111 1354.88 165.206C1357.56 154.301 1361.55 144.007 1366.84 134.322C1372.13 124.638 1378.72 116.174 1386.62 108.932C1394.59 101.607 1403.79 95.8701 1414.21 91.7197C1424.7 87.488 1436.46 85.3721 1449.48 85.3721C1461.93 85.3721 1473.12 87.488 1483.05 91.7197C1492.98 95.9515 1501.65 101.689 1509.05 108.932C1516.54 116.093 1522.73 124.516 1527.61 134.2C1532.57 143.803 1536.28 154.016 1538.72 164.84C1541.24 175.582 1542.5 186.69 1542.5 198.165C1542.5 209.558 1541.24 220.667 1538.72 231.49C1536.28 242.314 1532.57 252.568 1527.61 262.252C1522.73 271.855 1516.62 280.278 1509.3 287.521C1501.97 294.763 1493.39 300.541 1483.54 304.854C1473.78 309.168 1462.79 311.365 1450.58 311.446ZM1444.11 129.073C1435.16 129.643 1427.31 132.084 1420.55 136.397C1413.88 140.711 1408.31 146.204 1403.83 152.877C1399.35 159.469 1396.02 166.956 1393.82 175.338C1391.62 183.639 1390.56 192.102 1390.65 200.729C1390.73 209.273 1391.95 217.656 1394.31 225.875C1396.75 234.013 1400.33 241.297 1405.05 247.726C1409.77 254.155 1415.67 259.322 1422.75 263.229C1429.83 267.135 1438.09 269.129 1447.53 269.21C1454.37 269.291 1460.55 267.989 1466.08 265.304C1471.7 262.618 1476.58 258.997 1480.73 254.439C1484.97 249.882 1488.51 244.552 1491.35 238.448C1494.2 232.263 1496.32 225.753 1497.7 218.917C1499.17 212 1499.9 204.96 1499.9 197.799C1499.9 190.556 1499.17 183.557 1497.7 176.803C1496.32 169.967 1494.16 163.578 1491.23 157.638C1488.3 151.616 1484.6 146.448 1480.12 142.135C1475.65 137.74 1470.4 134.363 1464.38 132.003C1458.44 129.643 1451.68 128.666 1444.11 129.073ZM1638.45 234.664L1691.67 92.4521C1692.24 90.9059 1693.71 89.848 1696.07 89.2783C1698.43 88.6273 1701.15 88.4238 1704.24 88.668C1707.42 88.9121 1710.71 89.5632 1714.13 90.6211C1717.55 91.5977 1720.56 92.9404 1723.17 94.6494C1725.85 96.277 1727.89 98.1895 1729.27 100.387C1730.65 102.584 1730.94 104.985 1730.12 107.589C1729.47 109.461 1728.13 113.285 1726.09 119.063C1724.06 124.841 1721.5 131.922 1718.4 140.304C1715.39 148.604 1712.02 157.841 1708.27 168.014C1704.61 178.186 1700.83 188.644 1696.92 199.386C1693.01 210.047 1689.11 220.667 1685.2 231.246C1681.38 241.744 1677.8 251.51 1674.46 260.543C1671.2 269.576 1668.31 277.551 1665.79 284.469C1663.35 291.305 1661.56 296.391 1660.42 299.728C1659.85 301.355 1658.51 302.698 1656.39 303.756C1654.36 304.732 1651.92 305.465 1649.07 305.953C1646.22 306.441 1643.17 306.645 1639.91 306.563C1636.66 306.563 1633.61 306.279 1630.76 305.709C1627.91 305.221 1625.43 304.488 1623.31 303.512C1621.2 302.535 1619.85 301.396 1619.28 300.094C1617.82 296.839 1615.74 291.793 1613.06 284.957C1610.37 278.121 1607.28 270.187 1603.78 261.153C1600.28 252.039 1596.54 242.192 1592.55 231.612C1588.56 220.951 1584.53 210.25 1580.46 199.508C1576.48 188.684 1572.57 178.146 1568.75 167.892C1564.92 157.556 1561.46 148.198 1558.37 139.815C1555.36 131.433 1552.8 124.312 1550.68 118.453C1548.56 112.594 1547.22 108.728 1546.65 106.856C1545.76 104.252 1546 101.852 1547.38 99.6543C1548.85 97.457 1550.88 95.5446 1553.49 93.917C1556.17 92.208 1559.22 90.8652 1562.64 89.8887C1566.06 88.8307 1569.32 88.1797 1572.41 87.9355C1575.58 87.6914 1578.35 87.8949 1580.71 88.5459C1583.07 89.1156 1584.53 90.1735 1585.1 91.7197L1638.45 234.664ZM1787.86 177.901L1859.27 177.657C1860.98 177.657 1862.53 178.756 1863.91 180.953C1865.3 183.069 1866.35 185.755 1867.09 189.01C1867.9 192.184 1868.35 195.642 1868.43 199.386C1868.59 203.129 1868.27 206.629 1867.45 209.884C1866.72 213.058 1865.5 215.743 1863.79 217.94C1862.08 220.056 1859.8 221.074 1856.95 220.992L1787.98 220.26L1788.11 264.938H1867.82C1869.53 264.938 1871.07 265.995 1872.46 268.111C1873.84 270.146 1874.9 272.75 1875.63 275.924C1876.44 279.016 1876.89 282.394 1876.97 286.056C1877.14 289.636 1876.81 292.973 1876 296.065C1875.26 299.158 1874.04 301.762 1872.33 303.878C1870.63 305.912 1868.35 306.889 1865.5 306.808C1860.13 306.726 1853.98 306.686 1847.07 306.686C1840.23 306.686 1833.03 306.686 1825.46 306.686C1817.89 306.686 1810.2 306.686 1802.39 306.686C1794.58 306.767 1787.05 306.808 1779.81 306.808C1773.62 306.808 1768.45 306.482 1764.3 305.831C1760.15 305.261 1756.78 304.326 1754.17 303.023C1751.65 301.721 1749.74 300.012 1748.43 297.896C1747.21 295.699 1746.36 293.054 1745.87 289.962C1745.38 286.869 1745.14 283.289 1745.14 279.22C1745.14 275.069 1745.14 270.349 1745.14 265.06L1744.77 127.608C1744.77 122.319 1744.77 117.639 1744.77 113.57C1744.77 109.42 1745.02 105.799 1745.5 102.706C1745.99 99.6136 1746.85 97.0094 1748.07 94.8936C1749.37 92.6963 1751.28 90.9466 1753.8 89.6445C1756.41 88.3424 1759.75 87.4066 1763.81 86.8369C1767.96 86.1859 1773.17 85.8604 1779.44 85.8604C1786.68 85.8604 1794.21 85.901 1802.02 85.9824C1809.83 85.9824 1817.53 85.9824 1825.09 85.9824C1832.66 85.9824 1839.86 85.9824 1846.7 85.9824C1853.62 85.9824 1859.76 85.9417 1865.13 85.8604C1867.98 85.8604 1870.26 86.9183 1871.97 89.0342C1873.68 91.0687 1874.9 93.6729 1875.63 96.8467C1876.44 99.9391 1876.77 103.357 1876.61 107.101C1876.53 110.763 1876.08 114.181 1875.26 117.354C1874.53 120.528 1873.47 123.173 1872.09 125.289C1870.71 127.405 1869.16 128.463 1867.45 128.463H1787.74L1787.86 177.901ZM1915.3 85.6162C1923.12 84.721 1931.66 84.1921 1940.94 84.0293C1950.22 83.7852 1959.53 84.2327 1968.89 85.3721C1978.33 86.5114 1987.45 88.4645 1996.24 91.2314C2005.11 93.9984 2013 97.9046 2019.92 102.95C2026.92 107.914 2032.61 114.14 2037.01 121.627C2041.4 129.114 2043.84 138.188 2044.33 148.849C2044.66 156.498 2043.97 163.416 2042.26 169.601C2040.55 175.704 2038.07 181.157 2034.81 185.958C2031.56 190.678 2027.69 194.788 2023.21 198.287C2018.82 201.786 2014.02 204.798 2008.81 207.32C2003.68 209.762 1998.35 211.796 1992.82 213.424C1987.28 214.97 1981.87 216.15 1976.58 216.964L2044.82 277.145C2046.12 278.284 2046.61 280.115 2046.29 282.638C2045.96 285.16 2045.06 287.927 2043.6 290.938C2042.13 293.95 2040.22 296.961 2037.86 299.972C2035.58 302.901 2033.14 305.343 2030.54 307.296C2027.93 309.33 2025.29 310.592 2022.6 311.08C2019.92 311.65 2017.48 310.999 2015.28 309.127L1937.4 237.96L1938.38 301.925C1938.38 303.634 1937.32 305.18 1935.2 306.563C1933.09 307.947 1930.4 309.005 1927.14 309.737C1923.89 310.551 1920.39 310.999 1916.65 311.08C1912.9 311.243 1909.4 310.917 1906.15 310.104C1902.97 309.371 1900.29 308.15 1898.09 306.441C1895.98 304.732 1894.96 302.454 1895.04 299.605C1895.04 296.188 1895.08 291.02 1895.16 284.103C1895.32 277.104 1895.45 269.007 1895.53 259.811C1895.61 250.533 1895.69 240.523 1895.77 229.781C1895.85 218.958 1895.89 208.012 1895.89 196.944C1895.98 185.795 1895.98 174.85 1895.89 164.107C1895.89 153.365 1895.81 143.478 1895.65 134.444C1895.57 128.585 1895.73 122.848 1896.14 117.232C1896.63 111.536 1897.6 106.45 1899.07 101.974C1900.53 97.4163 1902.57 93.6729 1905.17 90.7432C1907.78 87.8135 1911.15 86.1045 1915.3 85.6162ZM1939.11 177.291C1940.49 177.535 1942.48 177.739 1945.09 177.901C1947.69 177.983 1950.62 177.983 1953.88 177.901C1957.21 177.82 1960.75 177.576 1964.5 177.169C1968.24 176.681 1971.94 175.989 1975.61 175.094C1979.27 174.199 1982.73 173.019 1985.98 171.554C1989.32 170.089 1992.21 168.299 1994.65 166.183C1997.09 163.985 1998.96 161.381 2000.26 158.37C2001.57 155.359 2002.06 151.9 2001.73 147.994C2001.4 144.007 2000.18 140.548 1998.07 137.618C1995.95 134.607 1993.23 132.084 1989.89 130.05C1986.63 127.934 1982.89 126.266 1978.66 125.045C1974.43 123.824 1970.03 122.929 1965.47 122.359C1960.92 121.79 1956.32 121.586 1951.68 121.749C1947.04 121.83 1942.65 122.156 1938.5 122.726L1939.11 177.291Z" fill="#DD2E44"/>
<g clip-path="url(#clip1_629_94)">
<path d="M1418.67 416.167H1115.33C1103.84 416.167 1092.82 420.732 1084.69 428.859C1076.57 436.985 1072 448.007 1072 459.5V654.5C1072 665.993 1076.57 677.015 1084.69 685.141C1092.82 693.268 1103.84 697.833 1115.33 697.833H1418.67C1430.16 697.833 1441.18 693.268 1449.31 685.141C1457.43 677.015 1462 665.993 1462 654.5V459.5C1462 448.007 1457.43 436.985 1449.31 428.859C1441.18 420.732 1430.16 416.167 1418.67 416.167V416.167Z" fill="#31373D"/>
<path d="M1239.92 513.667C1248.89 513.667 1256.17 506.391 1256.17 497.417C1256.17 488.442 1248.89 481.167 1239.92 481.167C1230.94 481.167 1223.67 488.442 1223.67 497.417C1223.67 506.391 1230.94 513.667 1239.92 513.667Z" fill="#31373D"/>
<path d="M1294.08 513.667C1303.06 513.667 1310.33 506.391 1310.33 497.417C1310.33 488.442 1303.06 481.167 1294.08 481.167C1285.11 481.167 1277.83 488.442 1277.83 497.417C1277.83 506.391 1285.11 513.667 1294.08 513.667Z" fill="#31373D"/>
<path d="M1267 535.333C1272.98 535.333 1277.83 532.908 1277.83 529.917C1277.83 526.925 1272.98 524.5 1267 524.5C1261.02 524.5 1256.17 526.925 1256.17 529.917C1256.17 532.908 1261.02 535.333 1267 535.333Z" fill="#292F33"/>
<path d="M1386.39 631.566C1385.06 631.079 1383.64 630.86 1382.21 630.922C1380.79 630.984 1379.4 631.326 1378.11 631.928C1376.82 632.529 1375.66 633.379 1374.7 634.428C1373.74 635.478 1372.99 636.707 1372.51 638.044L1298.67 611.167L1372.51 584.3C1373.24 586.313 1374.55 588.064 1376.28 589.33C1378.01 590.597 1380.07 591.323 1382.21 591.416C1384.35 591.51 1386.47 590.966 1388.3 589.855C1390.14 588.744 1391.6 587.114 1392.5 585.173C1393.41 583.231 1393.72 581.065 1393.39 578.947C1393.07 576.83 1392.12 574.856 1390.67 573.276C1389.23 571.697 1387.34 570.581 1385.26 570.071C1383.18 569.561 1381 569.68 1378.98 570.412C1381 569.68 1382.75 568.366 1384.02 566.638C1385.29 564.91 1386.01 562.845 1386.11 560.704C1386.2 558.563 1385.66 556.442 1384.54 554.61C1383.43 552.777 1381.8 551.316 1379.86 550.411C1377.92 549.505 1375.75 549.197 1373.63 549.523C1371.51 549.85 1369.54 550.798 1367.96 552.247C1366.38 553.696 1365.27 555.58 1364.76 557.663C1364.25 559.745 1364.37 561.931 1365.11 563.944L1267 599.651L1168.89 563.944C1169.38 562.608 1169.6 561.188 1169.54 559.767C1169.47 558.346 1169.13 556.951 1168.53 555.662C1167.93 554.373 1167.08 553.215 1166.03 552.254C1164.98 551.293 1163.76 550.548 1162.42 550.061C1161.08 549.575 1159.66 549.356 1158.24 549.418C1156.82 549.48 1155.43 549.821 1154.14 550.422C1152.85 551.024 1151.69 551.873 1150.73 552.921C1149.77 553.97 1149.02 555.198 1148.54 556.534C1148.05 557.871 1147.83 559.29 1147.89 560.712C1147.95 562.133 1148.29 563.529 1148.9 564.818C1149.5 566.107 1150.35 567.265 1151.4 568.225C1152.45 569.185 1153.68 569.928 1155.02 570.412C1153.68 569.924 1152.26 569.705 1150.84 569.767C1149.41 569.829 1148.02 570.171 1146.73 570.774C1145.44 571.377 1144.28 572.229 1143.32 573.28C1142.36 574.331 1141.62 575.562 1141.14 576.901C1140.65 578.237 1140.43 579.657 1140.5 581.077C1140.56 582.498 1140.9 583.893 1141.5 585.181C1142.1 586.47 1142.95 587.627 1144 588.588C1145.05 589.548 1146.28 590.293 1147.62 590.778C1148.95 591.264 1150.37 591.482 1151.79 591.419C1153.21 591.357 1154.61 591.015 1155.9 590.413C1157.19 589.812 1158.34 588.962 1159.3 587.913C1160.26 586.864 1161.01 585.637 1161.49 584.3L1235.33 611.167L1161.5 638.033C1160.77 636.019 1159.46 634.267 1157.73 632.999C1156.01 631.73 1153.94 631.003 1151.8 630.908C1149.66 630.813 1147.54 631.355 1145.71 632.466C1143.87 633.577 1142.41 635.206 1141.51 637.148C1140.6 639.09 1140.29 641.257 1140.61 643.375C1140.94 645.493 1141.89 647.467 1143.33 649.048C1144.78 650.628 1146.66 651.743 1148.75 652.253C1150.83 652.763 1153.01 652.644 1155.03 651.911C1153.01 652.642 1151.26 653.955 1149.99 655.682C1148.72 657.409 1148 659.474 1147.9 661.615C1147.81 663.756 1148.35 665.876 1149.46 667.709C1150.57 669.542 1152.2 671.004 1154.14 671.91C1156.08 672.817 1158.25 673.127 1160.37 672.802C1162.49 672.476 1164.46 671.53 1166.04 670.083C1167.62 668.635 1168.74 666.752 1169.25 664.67C1169.76 662.589 1169.64 660.403 1168.9 658.389L1267 622.704L1365.1 658.4C1364.36 660.414 1364.24 662.6 1364.75 664.681C1365.26 666.763 1366.38 668.646 1367.96 670.094C1369.54 671.541 1371.51 672.487 1373.63 672.812C1375.75 673.138 1377.92 672.827 1379.86 671.921C1381.8 671.015 1383.43 669.552 1384.54 667.72C1385.65 665.887 1386.19 663.766 1386.1 661.626C1386 659.485 1385.28 657.42 1384.01 655.693C1382.74 653.965 1380.99 652.653 1378.97 651.922C1380.31 652.419 1381.74 652.646 1383.16 652.59C1384.59 652.535 1385.99 652.198 1387.29 651.599C1388.58 651 1389.75 650.151 1390.71 649.1C1391.68 648.049 1392.43 646.817 1392.92 645.476C1393.41 644.134 1393.63 642.709 1393.56 641.283C1393.5 639.856 1393.16 638.456 1392.55 637.164C1391.94 635.871 1391.09 634.711 1390.03 633.75C1388.97 632.789 1387.74 632.047 1386.39 631.566V631.566Z" fill="#E6E7E8"/>
<path d="M1267 437.833C1223.67 437.833 1202 472.922 1202 502.833C1202 517.935 1210.96 528.822 1223.67 535.918V557C1223.67 559.873 1224.81 562.629 1226.84 564.66C1228.87 566.692 1231.63 567.833 1234.5 567.833C1237.37 567.833 1240.13 566.692 1242.16 564.66C1244.19 562.629 1245.33 559.873 1245.33 557V543.827C1248.91 544.607 1252.54 545.202 1256.17 545.582V557C1256.17 559.873 1257.31 562.629 1259.34 564.66C1261.37 566.692 1264.13 567.833 1267 567.833C1269.87 567.833 1272.63 566.692 1274.66 564.66C1276.69 562.629 1277.83 559.873 1277.83 557V545.582C1281.46 545.192 1285.09 544.607 1288.67 543.827V557C1288.67 559.873 1289.81 562.629 1291.84 564.66C1293.87 566.692 1296.63 567.833 1299.5 567.833C1302.37 567.833 1305.13 566.692 1307.16 564.66C1309.19 562.629 1310.33 559.873 1310.33 557V535.918C1323.04 528.833 1332 517.946 1332 502.833C1332 472.922 1310.33 437.833 1267 437.833V437.833ZM1239.92 513.667C1230.94 513.667 1223.67 513.667 1223.67 497.417C1223.67 493.107 1225.38 488.974 1228.43 485.926C1231.47 482.879 1235.61 481.167 1239.92 481.167C1256.17 481.167 1256.17 488.436 1256.17 497.417C1256.17 506.397 1248.9 513.667 1239.92 513.667ZM1267 535.333C1261.02 535.333 1256.17 532.907 1256.17 529.917C1256.17 526.927 1261.02 524.5 1267 524.5C1272.98 524.5 1277.83 526.927 1277.83 529.917C1277.83 532.907 1272.98 535.333 1267 535.333ZM1294.08 513.667C1285.11 513.667 1277.83 506.397 1277.83 497.417C1277.83 488.436 1277.83 481.167 1294.08 481.167C1298.39 481.167 1302.53 482.879 1305.57 485.926C1308.62 488.974 1310.33 493.107 1310.33 497.417C1310.33 513.667 1303.05 513.667 1294.08 513.667Z" fill="#E6E7E8"/>
</g>
</g>
<defs>
<clipPath id="clip0_629_94">
<rect width="2533" height="854" fill="white"/>
</clipPath>
<clipPath id="clip1_629_94">
<rect width="390" height="390" fill="white" transform="translate(1072 362)"/>
</clipPath>
</defs>
</svg>
