<svg width="1043" height="438" viewBox="0 0 1043 438" fill="none" xmlns="http://www.w3.org/2000/svg">
<path d="M183.512 233.305C183.512 244.828 181.656 254.887 177.945 263.48C174.234 271.977 169.254 279.057 163.004 284.721C156.852 290.385 149.723 294.633 141.617 297.465C133.512 300.297 125.113 301.713 116.422 301.713C108.219 301.713 99.918 300.541 91.5195 298.197C83.1211 295.854 75.0156 292.533 67.2031 288.236C59.4883 283.939 52.2129 278.715 45.377 272.562C38.6387 266.41 32.7305 259.525 27.6523 251.908C26.2852 249.857 25.9434 247.465 26.627 244.73C27.3105 241.898 28.6289 239.066 30.582 236.234C32.5352 233.305 34.8789 230.57 37.6133 228.031C40.4453 225.492 43.2285 223.441 45.9629 221.879C48.7949 220.219 51.4316 219.291 53.873 219.096C56.3145 218.803 58.1699 219.535 59.4395 221.293C62.7598 225.98 66.4707 230.277 70.5723 234.184C74.7715 238.09 79.1172 241.508 83.6094 244.438C88.1016 247.367 92.6914 249.711 97.3789 251.469C102.066 253.129 106.607 254.105 111.002 254.398C114.908 254.691 118.229 254.301 120.963 253.227C123.697 252.055 125.846 250.492 127.408 248.539C128.971 246.488 130.045 244.145 130.631 241.508C131.314 238.871 131.607 236.137 131.51 233.305C131.412 230.473 130.924 227.689 130.045 224.955C129.166 222.123 128.092 219.584 126.822 217.338C123.99 212.553 120.084 207.768 115.104 202.982C110.123 198.197 104.605 193.412 98.5508 188.627C92.5938 183.744 86.3438 178.861 79.8008 173.979C73.3555 168.998 67.1543 163.92 61.1973 158.744C55.3379 153.568 49.9668 148.295 45.084 142.924C40.2988 137.553 36.5879 131.986 33.9512 126.225C29.5566 116.557 27.6035 106.791 28.0918 96.9277C28.5801 86.9668 31.168 77.6895 35.8555 69.0957C39.4688 62.2598 43.8633 56.4492 49.0391 51.6641C54.3125 46.7813 59.9766 42.9238 66.0312 40.0918C72.1836 37.1621 78.6777 35.209 85.5137 34.2324C92.3496 33.1582 99.2344 33.0117 106.168 33.793C113.199 34.4766 120.133 36.0391 126.969 38.4805C133.805 40.9219 140.299 44.1445 146.451 48.1484C149.186 49.9062 152.311 52.25 155.826 55.1797C159.439 58.0117 163.004 61.0879 166.52 64.4082C170.133 67.6309 173.453 70.8535 176.48 74.0762C179.508 77.2012 181.803 79.9355 183.365 82.2793C185.123 85.0137 185.562 87.8457 184.684 90.7754C183.902 93.6074 182.291 96.3906 179.85 99.125C177.506 101.762 174.576 104.203 171.061 106.449C167.643 108.598 164.225 110.307 160.807 111.576C157.389 112.748 154.215 113.432 151.285 113.627C148.453 113.725 146.451 112.992 145.279 111.43C139.225 104.008 132.73 98.0508 125.797 93.5586C118.961 88.9688 112.418 85.8437 106.168 84.1836C99.918 82.4258 94.4004 82.1816 89.6152 83.4512C84.8301 84.623 81.5098 87.2598 79.6543 91.3613C78.0918 94.7793 77.9453 98.4414 79.2148 102.348C80.4844 106.156 82.7305 110.16 85.9531 114.359C89.2734 118.559 93.3262 122.904 98.1113 127.396C102.994 131.889 108.219 136.479 113.785 141.166C119.449 145.756 125.211 150.443 131.07 155.229C137.027 160.014 142.691 164.799 148.062 169.584C153.434 174.271 158.316 179.008 162.711 183.793C167.105 188.48 170.621 193.07 173.258 197.562C176.383 203.129 178.873 208.842 180.729 214.701C182.584 220.561 183.512 226.762 183.512 233.305ZM419.645 289.994C419.645 291.947 418.668 293.803 416.715 295.561C414.859 297.221 412.369 298.637 409.244 299.809C406.217 301.078 402.799 302.006 398.99 302.592C395.279 303.178 391.617 303.373 388.004 303.178C384.488 302.982 381.217 302.348 378.189 301.273C375.162 300.199 372.867 298.588 371.305 296.439C369.059 293.412 365.543 288.578 360.758 281.938C356.07 275.199 350.504 267.289 344.059 258.207C337.711 249.125 330.729 239.164 323.111 228.324C315.494 217.387 307.682 206.205 299.674 194.779C291.764 183.256 283.805 171.781 275.797 160.355C267.887 148.93 260.367 138.139 253.238 127.982L254.264 290.873C254.264 292.924 252.994 294.779 250.455 296.439C247.916 298.1 244.693 299.369 240.787 300.248C236.979 301.225 232.779 301.762 228.189 301.859C223.697 302.055 219.498 301.664 215.592 300.688C211.783 299.809 208.609 298.344 206.07 296.293C203.531 294.242 202.262 291.508 202.262 288.09L203.141 44.0469C203.141 42.7773 204.166 41.5566 206.217 40.3848C208.268 39.1152 210.855 37.9922 213.98 37.0156C217.105 36.0391 220.572 35.2578 224.381 34.6719C228.189 34.0859 231.852 33.8418 235.367 33.9395C238.98 33.9395 242.203 34.3301 245.035 35.1113C247.867 35.8926 249.918 37.1621 251.188 38.9199L367.936 202.396C367.936 191.361 367.936 180.033 367.936 168.412C368.033 156.791 368.082 145.414 368.082 134.281C368.082 123.148 368.082 112.553 368.082 102.494C368.082 92.3379 368.082 83.207 368.082 75.1016C368.18 66.9961 368.229 60.1602 368.229 54.5938C368.326 49.0273 368.424 45.2188 368.521 43.168C368.521 41.3125 369.742 39.7012 372.184 38.334C374.723 36.9668 377.799 35.9414 381.412 35.2578C385.123 34.4766 389.078 34.0371 393.277 33.9395C397.574 33.7441 401.529 33.8906 405.143 34.3789C408.854 34.8672 411.93 35.7461 414.371 37.0156C416.812 38.2852 418.033 39.8965 418.033 41.8496L419.645 289.994ZM703.482 130.619L796.646 38.1875C798.111 36.7227 800.211 36.332 802.945 37.0156C805.68 37.6016 808.609 38.9199 811.734 40.9707C814.859 42.9238 817.887 45.4629 820.816 48.5879C823.746 51.6152 826.09 54.8379 827.848 58.2559C829.703 61.5762 830.729 64.8965 830.924 68.2168C831.119 71.4395 829.996 74.2715 827.555 76.7129L739.664 160.795L837.955 260.551C839.42 262.016 839.811 264.262 839.127 267.289C838.443 270.219 837.027 273.393 834.879 276.811C832.73 280.131 830.094 283.402 826.969 286.625C823.844 289.848 820.572 292.484 817.154 294.535C813.834 296.586 810.514 297.758 807.193 298.051C803.873 298.441 801.041 297.367 798.697 294.828L703.922 196.83L704.361 291.459C704.361 293.51 703.092 295.365 700.553 297.025C698.014 298.686 694.791 299.955 690.885 300.834C686.979 301.811 682.779 302.348 678.287 302.445C673.795 302.641 669.596 302.25 665.689 301.273C661.881 300.395 658.658 298.93 656.021 296.879C653.482 294.828 652.262 292.094 652.359 288.676C652.359 285.258 652.359 280.424 652.359 274.174C652.457 267.826 652.506 260.453 652.506 252.055C652.604 243.656 652.652 234.477 652.652 224.516C652.652 214.555 652.652 204.203 652.652 193.461C652.652 182.719 652.652 171.879 652.652 160.941C652.75 149.906 652.799 139.213 652.799 128.861C652.799 118.412 652.799 108.5 652.799 99.125C652.896 89.75 652.945 81.3516 652.945 73.9297C652.945 66.4102 652.945 60.1113 652.945 55.0332C653.043 49.8574 653.141 46.293 653.238 44.3398C653.238 42.4844 654.459 40.873 656.9 39.5059C659.439 38.1387 662.516 37.1133 666.129 36.4297C669.84 35.6484 673.795 35.209 677.994 35.1113C682.291 34.916 686.246 35.0625 689.859 35.5508C693.57 36.0391 696.646 36.918 699.088 38.1875C701.529 39.457 702.75 41.0684 702.75 43.0215L703.482 130.619ZM907.682 144.682L993.375 144.389C995.426 144.389 997.281 145.707 998.941 148.344C1000.6 150.883 1001.87 154.105 1002.75 158.012C1003.73 161.82 1004.26 165.971 1004.36 170.463C1004.56 174.955 1004.17 179.154 1003.19 183.061C1002.31 186.869 1000.85 190.092 998.795 192.729C996.744 195.268 994.01 196.488 990.592 196.391L907.828 195.512L907.975 249.125H1003.63C1005.68 249.125 1007.54 250.395 1009.2 252.934C1010.86 255.375 1012.12 258.5 1013 262.309C1013.98 266.02 1014.52 270.072 1014.62 274.467C1014.81 278.764 1014.42 282.768 1013.44 286.479C1012.56 290.189 1011.1 293.314 1009.05 295.854C1007 298.295 1004.26 299.467 1000.85 299.369C994.4 299.271 987.027 299.223 978.727 299.223C970.523 299.223 961.881 299.223 952.799 299.223C943.717 299.223 934.488 299.223 925.113 299.223C915.738 299.32 906.705 299.369 898.014 299.369C890.592 299.369 884.391 298.979 879.41 298.197C874.43 297.514 870.377 296.391 867.252 294.828C864.225 293.266 861.93 291.215 860.367 288.676C858.902 286.039 857.877 282.865 857.291 279.154C856.705 275.443 856.412 271.146 856.412 266.264C856.412 261.283 856.412 255.619 856.412 249.271L855.973 84.3301C855.973 77.9824 855.973 72.3672 855.973 67.4844C855.973 62.5039 856.266 58.1582 856.852 54.4473C857.438 50.7363 858.463 47.6113 859.928 45.0723C861.49 42.4355 863.785 40.3359 866.812 38.7734C869.938 37.2109 873.941 36.0879 878.824 35.4043C883.805 34.623 890.055 34.2324 897.574 34.2324C906.266 34.2324 915.299 34.2812 924.674 34.3789C934.049 34.3789 943.277 34.3789 952.359 34.3789C961.441 34.3789 970.084 34.3789 978.287 34.3789C986.588 34.3789 993.961 34.3301 1000.41 34.2324C1003.82 34.2324 1006.56 35.502 1008.61 38.041C1010.66 40.4824 1012.12 43.6074 1013 47.416C1013.98 51.127 1014.37 55.2285 1014.18 59.7207C1014.08 64.1152 1013.54 68.2168 1012.56 72.0254C1011.69 75.834 1010.42 79.0078 1008.76 81.5469C1007.1 84.0859 1005.24 85.3555 1003.19 85.3555H907.535L907.682 144.682Z" fill="#F28201"/>
<path d="M607.845 299.5C598.512 299.5 590.812 297.867 584.745 294.6C578.912 291.333 574.245 286.783 570.745 280.95C567.245 275.117 564.212 268.35 561.645 260.65L546.595 214.1C545.195 209.433 543.562 204.767 541.695 200.1C540.062 195.2 538.428 190.3 536.795 185.4C535.162 180.267 533.762 175.25 532.595 170.35C531.662 165.217 530.962 160.2 530.495 155.3H529.445C528.745 165.567 526.995 175.017 524.195 183.65C521.628 192.283 518.478 202.083 514.745 213.05L487.095 296H430.045L505.995 106.3L502.145 95.1C498.412 84.1333 493.045 77.25 486.045 74.45C479.278 71.65 471.345 70.25 462.245 70.25C458.278 70.25 454.662 70.4833 451.395 70.95C448.128 71.4167 445.328 71.8833 442.995 72.35V31.05C445.095 30.5833 447.545 30.1166 450.345 29.65C453.378 29.1833 456.645 28.8333 460.145 28.6C463.645 28.3666 467.378 28.25 471.345 28.25C484.645 28.25 496.078 29.7667 505.645 32.8C515.212 35.8333 523.378 41.2 530.145 48.9C537.145 56.6 543.328 67.5667 548.695 81.8L600.845 221.1C604.578 230.667 607.612 238.017 609.945 243.15C612.512 248.05 614.962 251.433 617.295 253.3C619.862 254.933 622.778 255.75 626.045 255.75C628.612 255.75 630.712 255.633 632.345 255.4C633.978 254.933 635.845 254.467 637.945 254V294.25C636.078 295.183 633.278 296 629.545 296.7C626.045 297.633 622.312 298.333 618.345 298.8C614.378 299.267 610.878 299.5 607.845 299.5Z" fill="#00A6F1"/>
<path d="M855.234 411.527C852.539 411.605 850.293 411.117 848.496 410.062C846.738 408.969 845.391 407.602 844.453 405.961C843.555 404.32 843.086 402.523 843.047 400.57C843.047 398.617 843.477 396.801 844.336 395.121C845.195 393.441 846.484 392.035 848.203 390.902C849.961 389.77 852.148 389.203 854.766 389.203C857.148 389.203 859.16 389.75 860.801 390.844C862.441 391.898 863.691 393.246 864.551 394.887C865.449 396.527 865.918 398.305 865.957 400.219C866.035 402.094 865.684 403.871 864.902 405.551C864.16 407.191 862.988 408.578 861.387 409.711C859.785 410.844 857.734 411.449 855.234 411.527Z" fill="#00A6F1"/>
<path d="M896.602 344.848L933.867 307.875C934.453 307.289 935.293 307.133 936.387 307.406C937.48 307.641 938.652 308.168 939.902 308.988C941.152 309.77 942.363 310.785 943.535 312.035C944.707 313.246 945.645 314.535 946.348 315.902C947.09 317.23 947.5 318.559 947.578 319.887C947.656 321.176 947.207 322.309 946.23 323.285L911.074 356.918L950.391 396.82C950.977 397.406 951.133 398.305 950.859 399.516C950.586 400.688 950.02 401.957 949.16 403.324C948.301 404.652 947.246 405.961 945.996 407.25C944.746 408.539 943.438 409.594 942.07 410.414C940.742 411.234 939.414 411.703 938.086 411.82C936.758 411.977 935.625 411.547 934.688 410.531L896.777 371.332L896.953 409.184C896.953 410.004 896.445 410.746 895.43 411.41C894.414 412.074 893.125 412.582 891.562 412.934C890 413.324 888.32 413.539 886.523 413.578C884.727 413.656 883.047 413.5 881.484 413.109C879.961 412.758 878.672 412.172 877.617 411.352C876.602 410.531 876.113 409.438 876.152 408.07C876.152 406.703 876.152 404.77 876.152 402.27C876.191 399.73 876.211 396.781 876.211 393.422C876.25 390.062 876.27 386.391 876.27 382.406C876.27 378.422 876.27 374.281 876.27 369.984C876.27 365.688 876.27 361.352 876.27 356.977C876.309 352.562 876.328 348.285 876.328 344.145C876.328 339.965 876.328 336 876.328 332.25C876.367 328.5 876.387 325.141 876.387 322.172C876.387 319.164 876.387 316.645 876.387 314.613C876.426 312.543 876.465 311.117 876.504 310.336C876.504 309.594 876.992 308.949 877.969 308.402C878.984 307.855 880.215 307.445 881.66 307.172C883.145 306.859 884.727 306.684 886.406 306.645C888.125 306.566 889.707 306.625 891.152 306.82C892.637 307.016 893.867 307.367 894.844 307.875C895.82 308.383 896.309 309.027 896.309 309.809L896.602 344.848ZM1014.49 307.758C1015.31 307.758 1016.05 308.266 1016.72 309.281C1017.38 310.297 1017.89 311.566 1018.24 313.09C1018.63 314.613 1018.85 316.254 1018.89 318.012C1018.96 319.77 1018.81 321.41 1018.42 322.934C1018.07 324.457 1017.48 325.727 1016.66 326.742C1015.84 327.719 1014.75 328.207 1013.38 328.207L997.969 328.148L998.32 408.949C998.32 409.77 997.812 410.512 996.797 411.176C995.781 411.84 994.492 412.348 992.93 412.699C991.367 413.09 989.688 413.305 987.891 413.344C986.094 413.422 984.414 413.266 982.852 412.875C981.328 412.523 980.039 411.938 978.984 411.117C977.969 410.297 977.48 409.203 977.52 407.836C977.52 406.938 977.52 405.414 977.52 403.266C977.559 401.117 977.578 398.539 977.578 395.531C977.578 392.484 977.578 389.105 977.578 385.395C977.578 381.645 977.578 377.738 977.578 373.676C977.617 369.574 977.637 365.434 977.637 361.254C977.637 357.035 977.637 352.934 977.637 348.949C977.637 344.965 977.637 341.195 977.637 337.641C977.637 334.047 977.637 330.844 977.637 328.031L961.348 327.914C960.605 327.914 959.961 327.426 959.414 326.449C958.906 325.434 958.496 324.184 958.184 322.699C957.91 321.215 957.754 319.613 957.715 317.895C957.676 316.176 957.773 314.574 958.008 313.09C958.242 311.605 958.594 310.375 959.062 309.398C959.57 308.422 960.234 307.934 961.055 307.934L1014.49 307.758Z" fill="#523AA3"/>
</svg>
